<?xml version="1.0" encoding="UTF-8"?>
<svg width="48px" height="48px" viewBox="0 0 48 48" version="1.1" xmlns="http://www.w3.org/2000/svg" xmlns:xlink="http://www.w3.org/1999/xlink">
    <title>Common / Active Media</title>
    <g id="Common-/-Active-Media" stroke="none" stroke-width="1" fill="none" fill-rule="evenodd">
        <path d="M25.0718897,7.30078496 L38.8218897,17.955274 C39.2496475,18.2867315 39.5,18.7974384 39.5,19.3385861 L39.5,38.75 C39.5,39.7164983 38.7164983,40.5 37.75,40.5 L10.25,40.5 C9.28350169,40.5 8.5,39.7164983 8.5,38.75 L8.5,19.3385861 C8.5,18.7974384 8.75035247,18.2867315 9.17811027,17.955274 L22.9281103,7.30078496 C23.5590754,6.81186778 24.4409246,6.81186778 25.0718897,7.30078496 Z M24,8.68409707 L10.25,19.3385861 L10.25,38.75 L37.75,38.75 L37.75,19.3385861 L24,8.68409707 Z M31,22 L31,35 L29,35 L29,22 L31,22 Z M25,17 L25,35 L23,35 L23,17 L25,17 Z M19,26 L19,35 L17,35 L17,26 L19,26 Z" id="Icon" fill="#DCDEE0" fill-rule="nonzero"></path>
    </g>
</svg>