<?xml version="1.0" encoding="UTF-8"?>
<svg width="48px" height="48px" viewBox="0 0 48 48" version="1.1" xmlns="http://www.w3.org/2000/svg" xmlns:xlink="http://www.w3.org/1999/xlink">
    <title>Common / Add</title>
    <g id="Common-/-Add" stroke="none" stroke-width="1" fill="none" fill-rule="evenodd">
        <path d="M24,9.25 C24.3796958,9.25 24.693491,9.53215388 24.7431534,9.89822944 L24.75,10 L24.75,23.25 L38,23.25 C38.4142136,23.25 38.75,23.5857864 38.75,24 C38.75,24.3796958 38.4678461,24.693491 38.1017706,24.7431534 L38,24.75 L24.749,24.75 L24.75,38 C24.75,38.4142136 24.4142136,38.75 24,38.75 C23.6203042,38.75 23.306509,38.4678461 23.2568466,38.1017706 L23.25,38 L23.249,24.75 L10,24.75 C9.58578644,24.75 9.25,24.4142136 9.25,24 C9.25,23.6203042 9.53215388,23.306509 9.89822944,23.2568466 L10,23.25 L23.25,23.25 L23.25,10 C23.25,9.58578644 23.5857864,9.25 24,9.25 Z" id="Combined-Shape" fill="#DCDEE0" fill-rule="nonzero"></path>
    </g>
</svg>