<?xml version="1.0" encoding="UTF-8"?>
<svg width="48px" height="48px" viewBox="0 0 48 48" version="1.1" xmlns="http://www.w3.org/2000/svg" xmlns:xlink="http://www.w3.org/1999/xlink">
    <title>Common / Alert</title>
    <defs>
        <radialGradient cx="50.2665274%" cy="51.958878%" fx="50.2665274%" fy="51.958878%" r="45.1010899%" gradientTransform="translate(0.502665,0.519589),scale(0.907381,1.000000),rotate(81.472065),translate(-0.502665,-0.519589)" id="radialGradient-1">
            <stop stop-color="#DCDEE0" offset="0%"></stop>
            <stop stop-color="#DCDEE0" offset="100%"></stop>
        </radialGradient>
    </defs>
    <g id="Common-/-Alert" stroke="none" stroke-width="1" fill="none" fill-rule="evenodd">
        <path d="M25.4293384,9.28651662 C25.8543409,9.52904418 26.215583,9.86747693 26.4849381,10.2736882 L26.5946682,10.4518464 L38.4751664,31.2710967 C38.9028668,32.020594 38.986283,32.8724964 38.7753998,33.6439495 C38.5645166,34.4154026 38.0593339,35.1064065 37.3098365,35.5341069 C36.905438,35.7648768 36.4554652,35.9018754 35.9930735,35.9363083 L35.7609963,35.9449369 L12,35.9449369 C11.1370551,35.9449369 10.3558051,35.5951593 9.79029131,35.0296456 C9.22477754,34.4641318 8.875,33.6828818 8.875,32.8199369 C8.875,32.3543267 8.97903152,31.8956092 9.17830002,31.4769403 L9.28582997,31.2710967 L21.1663281,10.4518464 C21.5940285,9.70234908 22.2850324,9.19716642 23.0564855,8.9862832 C23.8279387,8.77539998 24.679841,8.85881621 25.4293384,9.28651662 Z M24,29.125 C23.3441619,29.125 22.7504119,29.3908309 22.3206214,29.8206214 C21.8908309,30.2504119 21.625,30.8441619 21.625,31.5 C21.625,32.1558381 21.8908309,32.7495881 22.3206214,33.1793786 C22.7504119,33.6091691 23.3441619,33.875 24,33.875 C24.6558381,33.875 25.2495881,33.6091691 25.6793786,33.1793786 C26.1091691,32.7495881 26.375,32.1558381 26.375,31.5 C26.375,30.8441619 26.1091691,30.2504119 25.6793786,29.8206214 C25.2495881,29.3908309 24.6558381,29.125 24,29.125 Z M23.8430581,14.9811979 C23.2983299,15.0035444 22.8102172,15.2299838 22.449228,15.5836473 C22.0952959,15.930397 21.839735,16.3942482 21.8141078,17.1470098 L21.8141078,17.1470098 L22.2107808,26.8165098 L22.2262792,26.9880587 C22.2816338,27.3823887 22.4690974,27.7329195 22.7417893,27.994654 C23.0534372,28.2937793 23.4764035,28.4769257 23.9407088,28.4769257 C24.3671544,28.4769257 24.758598,28.322235 25.060909,28.0652249 C25.3537173,27.8162936 25.5895469,27.4804893 25.6676031,26.85513 L25.6676031,26.85513 L26.0480314,17.1170157 L26.0422395,16.9385489 C26.0029574,16.4088716 25.7688519,15.933303 25.4029573,15.5820845 C25.0192504,15.2137683 24.4874024,14.9796013 23.8430581,14.9811979 Z" id="Shape" stroke="#DCDEE0" stroke-width="1.75" fill="url(#radialGradient-1)"></path>
    </g>
</svg>