<?xml version="1.0" encoding="UTF-8"?>
<svg width="48px" height="48px" viewBox="0 0 48 48" version="1.1" xmlns="http://www.w3.org/2000/svg" xmlns:xlink="http://www.w3.org/1999/xlink">
    <title>Common / Backspace delete</title>
    <g id="Common-/-Backspace-delete" stroke="none" stroke-width="1" fill="none" fill-rule="evenodd">
        <path d="M34.0061098,14 C35.1073049,14 36,14.8982124 36,15.9907951 L36,32.0092049 C36,33.1086907 35.1112816,34 34.0061098,34 L21.4640062,34 C20.362811,34 18.9078632,33.3112193 18.2031496,32.4479186 L12.7412314,25.7568636 C12.0415052,24.8996727 12.0238523,23.5033662 12.7060936,22.6326491 L18.2382874,15.5721331 C18.9186075,14.703868 20.3588343,14 21.4640062,14 L34.0061098,14 Z M34.0061098,15.25 L21.4640062,15.25 C20.7960963,15.25 19.8188427,15.703423 19.3267979,16.2223482 L19.2222239,16.3430864 L13.6900302,23.4036023 C13.3962118,23.7785908 13.3790652,24.4382234 13.6334606,24.8582033 L13.7095698,24.9664075 L19.171488,31.6574626 C19.6039606,32.1872578 20.5820313,32.6751824 21.3026462,32.7421829 L21.4640062,32.75 L34.0061098,32.75 C34.3851436,32.75 34.6943565,32.4724218 34.7432598,32.1100046 L34.75,32.0092049 L34.75,15.9907951 C34.75,15.6196867 34.4679457,15.30647 34.1065015,15.2568444 L34.0061098,15.25 Z M22.7874928,19.9167745 L22.8735517,19.9896893 L26.0572356,23.217 L29.241889,19.9896893 C29.484277,19.7439334 29.8799957,19.7412032 30.1257515,19.9835912 C30.3442011,20.1990471 30.3706305,20.5356533 30.20357,20.7803969 L30.1318496,20.8674536 L26.9352356,24.107 L30.1318496,27.3488382 C30.3742375,27.594594 30.3715073,27.9903127 30.1257515,28.2327006 C29.9073019,28.4481566 29.5703631,28.4699389 29.3279479,28.2995173 L29.241889,28.2266025 L26.0572356,24.998 L22.8735517,28.2266025 C22.6311638,28.4723584 22.2354451,28.4750886 21.9896893,28.2327006 C21.7712396,28.0172447 21.7448103,27.6806385 21.9118708,27.4358949 L21.9835912,27.3488382 L25.1792356,24.107 L21.9835912,20.8674536 C21.7412032,20.6216978 21.7439334,20.2259791 21.9896893,19.9835912 C22.2081389,19.7681352 22.5450777,19.7463529 22.7874928,19.9167745 Z" id="Icon" fill="#DCDEE0" fill-rule="nonzero"></path>
    </g>
</svg>