<?xml version="1.0" encoding="UTF-8"?>
<svg width="48px" height="48px" viewBox="0 0 48 48" version="1.1" xmlns="http://www.w3.org/2000/svg" xmlns:xlink="http://www.w3.org/1999/xlink">
    <title>Common / Bullet List</title>
    <defs>
        <radialGradient cx="50.2665274%" cy="51.958878%" fx="50.2665274%" fy="51.958878%" r="45.1994334%" gradientTransform="translate(0.502665,0.519589),scale(0.828829,1.000000),rotate(80.677426),translate(-0.502665,-0.519589)" id="radialGradient-1">
            <stop stop-color="#DCDEE0" offset="0%"></stop>
            <stop stop-color="#DCDEE0" offset="100%"></stop>
        </radialGradient>
    </defs>
    <g id="Common-/-Bullet-List" stroke="none" stroke-width="1" fill="none" fill-rule="evenodd">
        <path d="M11.5,35.5 C12.3284271,35.5 13,34.8284271 13,34 C13,33.1715729 12.3284271,32.5 11.5,32.5 C10.6715729,32.5 10,33.1715729 10,34 C10,34.8284271 10.6715729,35.5 11.5,35.5 Z M11.5,25.5 C12.3284271,25.5 13,24.8284271 13,24 C13,23.1715729 12.3284271,22.5 11.5,22.5 C10.6715729,22.5 10,23.1715729 10,24 C10,24.8284271 10.6715729,25.5 11.5,25.5 Z M11.5,15.5 C12.3284271,15.5 13,14.8284271 13,14 C13,13.1715729 12.3284271,12.5 11.5,12.5 C10.6715729,12.5 10,13.1715729 10,14 C10,14.8284271 10.6715729,15.5 11.5,15.5 Z M37,13.25 C37.4142136,13.25 37.75,13.5857864 37.75,14 C37.75,14.3796958 37.4678461,14.693491 37.1017706,14.7431534 L37,14.75 L17,14.75 C16.5857864,14.75 16.25,14.4142136 16.25,14 C16.25,13.6203042 16.5321539,13.306509 16.8982294,13.2568466 L17,13.25 L37,13.25 Z M37,23.25 C37.4142136,23.25 37.75,23.5857864 37.75,24 C37.75,24.3796958 37.4678461,24.693491 37.1017706,24.7431534 L37,24.75 L17,24.75 C16.5857864,24.75 16.25,24.4142136 16.25,24 C16.25,23.6203042 16.5321539,23.306509 16.8982294,23.2568466 L17,23.25 L37,23.25 Z M37,33.25 C37.4142136,33.25 37.75,33.5857864 37.75,34 C37.75,34.3796958 37.4678461,34.693491 37.1017706,34.7431534 L37,34.75 L17,34.75 C16.5857864,34.75 16.25,34.4142136 16.25,34 C16.25,33.6203042 16.5321539,33.306509 16.8982294,33.2568466 L17,33.25 L37,33.25 Z" id="Icon" fill="url(#radialGradient-1)"></path>
    </g>
</svg>