<?xml version="1.0" encoding="UTF-8"?>
<svg width="48px" height="48px" viewBox="0 0 48 48" version="1.1" xmlns="http://www.w3.org/2000/svg" xmlns:xlink="http://www.w3.org/1999/xlink">
    <title>Common / Carat Dn Inactive</title>
    <g id="Common-/-Carat-Dn-Inactive" stroke="none" stroke-width="1" fill="none" fill-rule="evenodd">
        <path d="M24,8 C32.836556,8 40,15.163444 40,24 C40,32.836556 32.836556,40 24,40 C15.163444,40 8,32.836556 8,24 C8,15.163444 15.163444,8 24,8 Z M24,9.5 C15.9918711,9.5 9.5,15.9918711 9.5,24 C9.5,32.0081289 15.9918711,38.5 24,38.5 C32.0081289,38.5 38.5,32.0081289 38.5,24 C38.5,15.9918711 32.0081289,9.5 24,9.5 Z M17.3492025,21.2965497 C17.610419,21.1032096 17.9686359,21.1012419 18.2318014,21.2904197 L18.3256578,21.3703209 L24.0002355,27.0587645 L29.4778027,21.5893212 L29.5619682,21.5167576 C29.855721,21.2990936 30.2723689,21.3235699 30.5384627,21.5900091 C30.8045564,21.8564484 30.8284922,22.2731276 30.6104474,22.5665978 L30.5377747,22.6506691 L24.529986,28.6506691 L24.445788,28.7232569 C24.184572,28.9167909 23.8262057,28.9188553 23.5629367,28.7296261 L23.469044,28.6496986 L17.2637459,22.4297279 L17.1912271,22.3455238 C16.997887,22.0843073 16.9959193,21.7260903 17.1850971,21.4629248 L17.2649983,21.3690685 L17.3492025,21.2965497 Z" id="Icon" fill="#DCDEE0" fill-rule="nonzero"></path>
    </g>
</svg>