<?xml version="1.0" encoding="UTF-8"?>
<svg width="48px" height="48px" viewBox="0 0 48 48" version="1.1" xmlns="http://www.w3.org/2000/svg" xmlns:xlink="http://www.w3.org/1999/xlink">
    <title>Common / Clear Field</title>
    <g id="Common-/-Clear-Field" stroke="none" stroke-width="1" fill="none" fill-rule="evenodd">
        <path d="M24,13 C30.0753478,13 35,17.9246522 35,24 C35,30.0753478 30.0753478,35 24,35 C17.9246522,35 13,30.0753478 13,24 C13,17.9246522 17.9246522,13 24,13 Z M24,14.25 C18.6150081,14.25 14.25,18.6150081 14.25,24 C14.25,29.3849919 18.6150081,33.75 24,33.75 C29.3849919,33.75 33.75,29.3849919 33.75,24 C33.75,18.6150081 29.3849919,14.25 24,14.25 Z M20.7874928,19.9167745 L20.8735517,19.9896893 L24.057,23.217 L27.241889,19.9896893 C27.484277,19.7439334 27.8799957,19.7412032 28.1257515,19.9835912 C28.3442011,20.1990471 28.3706305,20.5356533 28.20357,20.7803969 L28.1318496,20.8674536 L24.935,24.108 L28.1318496,27.3488382 C28.3742375,27.594594 28.3715073,27.9903127 28.1257515,28.2327006 C27.9073019,28.4481566 27.5703631,28.4699389 27.3279479,28.2995173 L27.241889,28.2266025 L24.057,24.998 L20.8735517,28.2266025 C20.6311638,28.4723584 20.2354451,28.4750886 19.9896893,28.2327006 C19.7712396,28.0172447 19.7448103,27.6806385 19.9118708,27.4358949 L19.9835912,27.3488382 L23.179,24.107 L19.9835912,20.8674536 C19.7412032,20.6216978 19.7439334,20.2259791 19.9896893,19.9835912 C20.2081389,19.7681352 20.5450777,19.7463529 20.7874928,19.9167745 Z" id="Icon" fill="#DCDEE0" fill-rule="nonzero"></path>
    </g>
</svg>