<?xml version="1.0" encoding="UTF-8"?>
<svg width="48px" height="48px" viewBox="0 0 48 48" version="1.1" xmlns="http://www.w3.org/2000/svg" xmlns:xlink="http://www.w3.org/1999/xlink">
    <title>Common / Close</title>
    <g id="Common-/-Close" stroke="none" stroke-width="1" fill="none" fill-rule="evenodd">
        <path d="M12.8630682,13.2380682 C13.1293348,12.9718016 13.5459984,12.9475956 13.8396099,13.16545 L13.9237284,13.2380682 L23.9993983,23.3133983 L34.0762716,13.2380682 C34.3691649,12.945175 34.8440386,12.945175 35.1369318,13.2380682 C35.4054173,13.5065536 35.427791,13.9279533 35.2040532,14.2219244 L35.1369318,14.2987284 L25.0603983,24.3743983 L35.1369318,34.4512716 L35.2040532,34.5280756 C35.427791,34.8220467 35.4054173,35.2434464 35.1369318,35.5119318 C34.8706652,35.7781984 34.4540016,35.8024044 34.1603901,35.58455 L34.0762716,35.5119318 L23.9993983,25.4353983 L13.9237284,35.5119318 C13.6308351,35.804825 13.1559614,35.804825 12.8630682,35.5119318 C12.5945827,35.2434464 12.572209,34.8220467 12.7959468,34.5280756 L12.8630682,34.4512716 L22.9383983,24.3743983 L12.8630682,14.2987284 L12.7959468,14.2219244 C12.572209,13.9279533 12.5945827,13.5065536 12.8630682,13.2380682 Z" id="Icon" fill="#DCDEE0" fill-rule="nonzero"></path>
    </g>
</svg>