<?xml version="1.0" encoding="UTF-8"?>
<svg width="48px" height="48px" viewBox="0 0 48 48" version="1.1" xmlns="http://www.w3.org/2000/svg" xmlns:xlink="http://www.w3.org/1999/xlink">
    <title>Common / Edit</title>
    <g id="Common-/-Edit" stroke="none" stroke-width="1" fill="none" fill-rule="evenodd">
        <path d="M32.2276981,12.4958897 L32.3543219,12.6121564 L34.5923727,14.8498292 C35.3195942,15.5769278 35.3662368,16.7555485 34.7076352,17.5390966 L34.5913341,17.6658847 L17.0524519,35.2047668 L12,35.2047668 L12,30.1514615 L29.5380921,12.6133693 C30.2753457,11.8761158 31.4455517,11.8370611 32.2276981,12.4958897 Z M27.142,17.1304533 L13.5,30.772 L13.5,33.704 L16.431,33.704 L30.073,20.0614533 L27.142,17.1304533 Z M30.6669861,13.6169801 L30.5987523,13.6740295 L28.203,16.0694533 L31.134,19.0004533 L33.5306739,16.6052245 C33.695044,16.4408543 33.7150924,16.1747321 33.5928818,15.9861364 L33.5318021,15.9105789 L31.2937513,13.6729061 C31.1234876,13.5026711 30.8588975,13.4838461 30.6669861,13.6169801 Z" id="Icon" fill="#DCDEE0" fill-rule="nonzero"></path>
    </g>
</svg>