<?xml version="1.0" encoding="UTF-8"?>
<svg width="48px" height="48px" viewBox="0 0 48 48" version="1.1" xmlns="http://www.w3.org/2000/svg" xmlns:xlink="http://www.w3.org/1999/xlink">
    <title>Common / EQ Active</title>
    <g id="Common-/-EQ-Active" stroke="none" stroke-width="1" fill="none" fill-rule="evenodd">
        <path d="M32,11.25 C32.3796958,11.25 32.693491,11.5321539 32.7431534,11.8982294 L32.75,12 L32.75,15.499 L34.5,15.5 C35.6045695,15.5 36.5,16.3954305 36.5,17.5 L36.5,22.5 C36.5,23.6045695 35.6045695,24.5 34.5,24.5 L32.75,24.499 L32.75,35.5 C32.75,35.9142136 32.4142136,36.25 32,36.25 C31.6203042,36.25 31.306509,35.9678461 31.2568466,35.6017706 L31.25,35.5 L31.25,24.499 L29.5,24.5 C28.3954305,24.5 27.5,23.6045695 27.5,22.5 L27.5,17.5 C27.5,16.3954305 28.3954305,15.5 29.5,15.5 L31.25,15.499 L31.25,12 C31.25,11.5857864 31.5857864,11.25 32,11.25 Z M34.5,17 L29.5,17 C29.2545401,17 29.0503916,17.1768752 29.0080557,17.4101244 L29,17.5 L29,22.5 C29,22.7454599 29.1768752,22.9496084 29.4101244,22.9919443 L29.5,23 L34.5,23 C34.7454599,23 34.9496084,22.8231248 34.9919443,22.5898756 L35,22.5 L35,17.5 C35,17.2545401 34.8231248,17.0503916 34.5898756,17.0080557 L34.5,17 Z M16,11.75 C16.3796958,11.75 16.693491,12.0321539 16.7431534,12.3982294 L16.75,12.5 L16.749,23.499 L18.5,23.5 C19.6045695,23.5 20.5,24.3954305 20.5,25.5 L20.5,30.5 C20.5,31.6045695 19.6045695,32.5 18.5,32.5 L16.75,32.5 L16.75,36 C16.75,36.4142136 16.4142136,36.75 16,36.75 C15.6203042,36.75 15.306509,36.4678461 15.2568466,36.1017706 L15.25,36 L15.25,32.499 L13.5,32.5 C12.3954305,32.5 11.5,31.6045695 11.5,30.5 L11.5,25.5 C11.5,24.3954305 12.3954305,23.5 13.5,23.5 L15.249,23.499 L15.25,12.5 C15.25,12.0857864 15.5857864,11.75 16,11.75 Z M18.5,25 L13.5,25 C13.2545401,25 13.0503916,25.1768752 13.0080557,25.4101244 L13,25.5 L13,30.5 C13,30.7454599 13.1768752,30.9496084 13.4101244,30.9919443 L13.5,31 L18.5,31 C18.7454599,31 18.9496084,30.8231248 18.9919443,30.5898756 L19,30.5 L19,25.5 C19,25.2545401 18.8231248,25.0503916 18.5898756,25.0080557 L18.5,25 Z" id="Icon" fill="#D9DBDD" fill-rule="nonzero"></path>
    </g>
</svg>