<?xml version="1.0" encoding="UTF-8"?>
<svg width="48px" height="48px" viewBox="0 0 48 48" version="1.1" xmlns="http://www.w3.org/2000/svg" xmlns:xlink="http://www.w3.org/1999/xlink">
    <title>Common / Favorites Active</title>
    <g id="Common-/-Favorites-Active" stroke="none" stroke-width="1" fill="none" fill-rule="evenodd">
        <path d="M23.2620834,34.3288515 L20.5047724,31.8230806 L20.5047724,31.8230806 L19.1953104,30.6163157 L19.1953104,30.6163157 L18.5741231,30.0331084 L18.5741231,30.0331084 L17.9762535,29.4620266 L17.9762535,29.4620266 L17.4024181,28.9020768 L17.4024181,28.9020768 L16.8533333,28.3522656 L16.8533333,28.3522656 L16.3297157,27.8115995 C13.6062745,24.9506675 12,22.4375381 12,19.5940054 C12,15.9013624 14.904,13 18.6,13 C20.688,13 22.692,13.9711172 24,15.5057221 C25.308,13.9711172 27.312,13 29.4,13 C33.096,13 36,15.9013624 36,19.5940054 C36,22.5263985 34.2917647,25.1074154 31.4117036,28.0840995 L30.8752629,28.6298411 L30.8752629,28.6298411 L30.3137133,29.1853004 L30.3137133,29.1853004 L29.7277712,29.7514752 L29.7277712,29.7514752 L29.1181532,30.3293634 L29.1181532,30.3293634 L28.160901,31.220341 L28.160901,31.220341 L26.4572508,32.7780058 L26.4572508,32.7780058 L25.74,33.4294278 L25.74,33.4294278 L24.7480147,34.3248212 C24.3348976,34.6977122 23.6645105,34.6948663 23.2620834,34.3288515 Z" id="Icon" fill="#DCDEE0"></path>
    </g>
</svg>