<?xml version="1.0" encoding="UTF-8"?>
<svg width="48px" height="48px" viewBox="0 0 48 48" version="1.1" xmlns="http://www.w3.org/2000/svg" xmlns:xlink="http://www.w3.org/1999/xlink">
    <title>Common / Filter</title>
    <g id="Common-/-Filter" stroke="none" stroke-width="1" fill="none" fill-rule="evenodd">
        <path d="M24,8 C32.8368696,8 40,15.1631304 40,24 C40,32.8368696 32.8368696,40 24,40 C15.1631304,40 8,32.8368696 8,24 C8,15.1631304 15.1631304,8 24,8 Z M24,9.5 C15.9915576,9.5 9.5,15.9915576 9.5,24 C9.5,32.0084424 15.9915576,38.5 24,38.5 C32.0084424,38.5 38.5,32.0084424 38.5,24 C38.5,15.9915576 32.0084424,9.5 24,9.5 Z M27,28.75 C27.4142136,28.75 27.75,29.0857864 27.75,29.5 C27.75,29.8796958 27.4678461,30.193491 27.1017706,30.2431534 L27,30.25 L21,30.25 C20.5857864,30.25 20.25,29.9142136 20.25,29.5 C20.25,29.1203042 20.5321539,28.806509 20.8982294,28.7568466 L21,28.75 L27,28.75 Z M29,23.75 C29.4142136,23.75 29.75,24.0857864 29.75,24.5 C29.75,24.8796958 29.4678461,25.193491 29.1017706,25.2431534 L29,25.25 L19,25.25 C18.5857864,25.25 18.25,24.9142136 18.25,24.5 C18.25,24.1203042 18.5321539,23.806509 18.8982294,23.7568466 L19,23.75 L29,23.75 Z M31,18.75 C31.4142136,18.75 31.75,19.0857864 31.75,19.5 C31.75,19.8796958 31.4678461,20.193491 31.1017706,20.2431534 L31,20.25 L17,20.25 C16.5857864,20.25 16.25,19.9142136 16.25,19.5 C16.25,19.1203042 16.5321539,18.806509 16.8982294,18.7568466 L17,18.75 L31,18.75 Z" id="Icon" fill="#DCDEE0" fill-rule="nonzero"></path>
    </g>
</svg>