<?xml version="1.0" encoding="UTF-8"?>
<svg width="48px" height="48px" viewBox="0 0 48 48" version="1.1" xmlns="http://www.w3.org/2000/svg" xmlns:xlink="http://www.w3.org/1999/xlink">
    <title>Common / Hamburger</title>
    <g id="Common-/-Hamburger" stroke="none" stroke-width="1" fill="none" fill-rule="evenodd">
        <path d="M38,15.1875 C38.4142136,15.1875 38.75,15.5232864 38.75,15.9375 C38.75,16.3171958 38.4678461,16.630991 38.1017706,16.6806534 L38,16.6875 L10,16.6875 C9.58578644,16.6875 9.25,16.3517136 9.25,15.9375 C9.25,15.5578042 9.53215388,15.244009 9.89822944,15.1943466 L10,15.1875 L38,15.1875 Z M38,23.1875 C38.4142136,23.1875 38.75,23.5232864 38.75,23.9375 C38.75,24.3171958 38.4678461,24.630991 38.1017706,24.6806534 L38,24.6875 L10,24.6875 C9.58578644,24.6875 9.25,24.3517136 9.25,23.9375 C9.25,23.5578042 9.53215388,23.244009 9.89822944,23.1943466 L10,23.1875 L38,23.1875 Z M38,31.1875 C38.4142136,31.1875 38.75,31.5232864 38.75,31.9375 C38.75,32.3171958 38.4678461,32.630991 38.1017706,32.6806534 L38,32.6875 L10,32.6875 C9.58578644,32.6875 9.25,32.3517136 9.25,31.9375 C9.25,31.5578042 9.53215388,31.244009 9.89822944,31.1943466 L10,31.1875 L38,31.1875 Z" id="Icon" fill="#DCDEE0" fill-rule="nonzero"></path>
    </g>
</svg>