<?xml version="1.0" encoding="UTF-8"?>
<svg width="48px" height="48px" viewBox="0 0 48 48" version="1.1" xmlns="http://www.w3.org/2000/svg" xmlns:xlink="http://www.w3.org/1999/xlink">
    <title>Common / Lighting Experience On</title>
    <g id="Common-/-Lighting-Experience-On" stroke="none" stroke-width="1" fill="none" fill-rule="evenodd">
        <path d="M22.0199733,40.5 C21.9062241,40.5 21.8026832,40.5593197 21.7501836,40.6509956 C21.697684,40.7440196 21.7049756,40.8559181 21.7691418,40.9435494 C22.3583042,41.7322316 23.3280888,42.2013963 24.3620396,42.2013963 C25.3945321,42.2013963 26.3643167,41.7322316 26.9534791,40.9435494 C27.0191036,40.8559181 27.0263952,40.7453678 26.9738956,40.6509956 C26.9199376,40.5593197 26.8163967,40.5 26.7026476,40.5 L22.0199733,40.5 Z M27.7751812,36.7573664 C28.1853264,36.6994546 28.5647616,36.9849961 28.6226734,37.3951414 C28.6757593,37.7711078 28.4402488,38.1212693 28.0847122,38.2216255 L27.9848985,38.2426336 L20.9026633,39.2426336 C20.4925181,39.3005454 20.1130828,39.0150039 20.055171,38.6048586 C20.0020852,38.2288922 20.2375956,37.8787307 20.5931322,37.7783745 L20.692946,37.7573664 L27.7751812,36.7573664 Z M10.2659072,35.5 C10.3220141,35.5 10.3730859,35.531668 10.3997007,35.5806095 C10.4255962,35.6309905 10.4219996,35.6900082 10.3896302,35.7367905 C10.0990249,36.1578314 9.62067713,36.4082968 9.11139857,36.4082968 C8.60140069,36.4082968 8.12305288,36.1578314 7.8324476,35.7367905 C7.80079752,35.6900082 7.79720092,35.6302708 7.82309644,35.5806095 C7.84251808,35.5439034 7.87610134,35.5169136 7.91534923,35.5057128 L7.95617064,35.5 L10.2659072,35.5 Z M40.2659072,35.5 C40.3220141,35.5 40.3730859,35.531668 40.3997007,35.5806095 C40.4255962,35.6309905 40.4219996,35.6900082 40.3896302,35.7367905 C40.0990249,36.1578314 39.6206771,36.4082968 39.1113986,36.4082968 C38.6014007,36.4082968 38.1230529,36.1578314 37.8324476,35.7367905 C37.8007975,35.6900082 37.7972009,35.6302708 37.8230964,35.5806095 C37.8425181,35.5439034 37.8761013,35.5169136 37.9153492,35.5057128 L37.9561706,35.5 L40.2659072,35.5 Z M23.9777782,4.24998749 C30.6415532,4.24615101 35.6574271,9.50280583 36.2010555,15.8160335 L36.2360972,16.3490332 L36.2360972,16.3490332 L36.2454284,16.6090573 L36.25,16.956255 L36.25,16.956255 C36.25,17.5880606 36.2130623,18.1860957 36.1388248,18.7583309 L36.0747701,19.1910749 L36.0747701,19.1910749 L36.0263733,19.4618258 L36.0263733,19.4618258 L35.9409281,19.8689374 L35.9409281,19.8689374 L35.8785591,20.1270481 L35.8785591,20.1270481 L35.7394756,20.6249441 L35.7394756,20.6249441 L35.6700798,20.8443321 L35.6700798,20.8443321 L35.5642132,21.1518117 L35.5642132,21.1518117 L35.4692634,21.405221 L35.4692634,21.405221 L35.3335804,21.7385473 L35.3335804,21.7385473 L35.1930427,22.055468 L35.1930427,22.055468 L35.0461644,22.362295 L35.0461644,22.362295 L34.8693018,22.7053287 L34.8693018,22.7053287 L34.7093983,22.9952998 L34.7093983,22.9952998 L34.4492735,23.4344333 L34.4492735,23.4344333 L34.1581612,23.8882558 L34.1581612,23.8882558 L33.9450668,24.2005604 L33.9450668,24.2005604 L33.7173715,24.5191233 L33.7173715,24.5191233 L33.4906982,24.8231687 L33.4906982,24.8231687 L33.1166761,25.3013905 L33.1166761,25.3013905 L32.6412426,25.8760923 L31.3801073,27.331505 L31.062516,27.7094921 L31.062516,27.7094921 L30.7940611,28.0440488 C30.7111731,28.1504191 30.6340857,28.2526857 30.5604103,28.3539833 C30.3018819,28.7094388 30.1017157,29.0337514 29.9513552,29.3456196 L29.9252743,29.4044867 L29.9252743,29.4044867 L29.8647239,29.5678443 L29.8647239,29.5678443 L29.7939539,29.7887448 L29.7939539,29.7887448 L29.6711698,30.2193564 L29.6711698,30.2193564 L29.5739963,30.5900615 L29.474973,30.9890703 L29.2906198,31.7774516 L29.1103921,32.5929686 C29.0803926,32.7319275 29.0504647,32.8720879 29.0206867,33.0129724 L28.8879614,33.6502284 L28.7169507,34.5007399 C28.6612654,34.7868002 28.4461546,35.0112393 28.1701983,35.0831535 L28.0640551,35.1027942 L20.1025166,35.9924075 C19.7122592,36.0360144 19.3544356,35.771212 19.2820744,35.3852505 L18.7490795,32.6171318 L18.7490795,32.6171318 L18.4210464,31.0192509 L18.4210464,31.0192509 L18.2370221,30.1894081 L18.2370221,30.1894081 L18.1217731,29.7188916 L18.1217731,29.7188916 L18.0752177,29.5495658 L18.0752177,29.5495658 L18.0362417,29.4249123 L18.004995,29.3454694 C17.8545085,29.0333399 17.6546931,28.7086961 17.3970051,28.3528253 L17.1652554,28.0438981 L17.1652554,28.0438981 L16.8992071,27.7104404 L16.8992071,27.7104404 L16.5845842,27.3336244 L16.5845842,27.3336244 L15.3366759,25.8836362 L14.9731874,25.4442037 C12.8888557,22.8697214 11.8328363,20.5348233 11.7546873,17.3433302 L11.7509872,16.7942082 L11.7628458,16.3723107 L11.7628458,16.3723107 L11.792028,15.9010887 L11.792028,15.9010887 L11.8049616,15.7500585 C12.3599742,9.67875067 17.0631731,4.57687465 23.3945096,4.26526892 L23.7124216,4.25369821 L23.9777782,4.24998749 Z M11.8142276,32.9100208 C11.8597806,33.2869741 11.6173113,33.6323535 11.2598379,33.7255761 L11.1596239,33.7445829 L7.02209519,34.2445829 C6.61087339,34.2942771 6.2372272,34.001201 6.18753307,33.5899792 C6.14198011,33.2130259 6.38444935,32.8676465 6.74192273,32.7744239 L6.84213682,32.7554171 L10.9796655,32.2554171 C11.3908873,32.2057229 11.7645335,32.498799 11.8142276,32.9100208 Z M41.8142276,32.9100208 C41.8597806,33.2869741 41.6173113,33.6323535 41.2598379,33.7255761 L41.1596239,33.7445829 L37.0220952,34.2445829 C36.6108734,34.2942771 36.2372272,34.001201 36.1875331,33.5899792 C36.1419801,33.2130259 36.3844494,32.8676465 36.7419227,32.7744239 L36.8421368,32.7554171 L40.9796655,32.2554171 C41.3908873,32.2057229 41.7645335,32.498799 41.8142276,32.9100208 Z M8.90743584,15.249999 C9.39832657,15.2502952 9.87411491,15.3002889 10.3320485,15.398028 C10.2775189,15.9112924 10.25,16.4306977 10.25,16.9561692 C10.25,20.5753002 11.3299141,23.3280093 13.8073704,26.3880632 L13.844,26.4319966 L13.6791067,26.6306829 L12.9842276,27.4359713 L12.9842276,27.4359713 L12.8437536,27.6061063 L12.8437536,27.6061063 C12.6394661,27.8656827 12.504467,28.0799516 12.4202549,28.2819888 C12.2727304,28.6359221 12.1271237,29.4695244 12.0813083,30.0508542 L12.0698668,30.2342833 L12.0672241,30.3414588 C12.0587854,30.6836872 11.8208383,30.9719921 11.4963008,31.051396 L11.3964847,31.0687952 L6.76805949,31.5592555 C6.33545642,31.6050971 5.9547292,31.274467 5.93948724,30.8397089 L5.93141232,30.6976377 L5.91382688,30.497635 L5.91382688,30.497635 L5.88506134,30.247327 L5.88506134,30.247327 C5.82682912,29.7921082 5.73502278,29.338097 5.60445933,28.921822 C5.52277437,28.6613861 5.42850435,28.425028 5.32215695,28.2184474 C5.23761064,28.0542156 5.12134357,27.8794837 4.96312652,27.6766093 L4.1871674,26.7628712 L4.1871674,26.7628712 L4.05140463,26.6060604 L4.05140463,26.6060604 C2.84237931,25.1705703 2.25,23.8726247 2.25,21.9754241 C2.25,18.4485147 4.96005942,15.3808577 8.66445111,15.2540726 L8.90743584,15.249999 Z M38.9074354,15.2499966 C42.7279375,15.2522999 45.5192841,18.3708857 45.5192841,21.9754241 C45.5192841,23.7527004 44.9996266,24.9976297 43.9423517,26.3150322 L43.6791067,26.6306829 L42.9842276,27.4359713 L42.9842276,27.4359713 L42.8437536,27.6061063 L42.8437536,27.6061063 C42.6394661,27.8656827 42.504467,28.0799516 42.4202549,28.2819888 C42.2727304,28.6359221 42.1271237,29.4695244 42.0813083,30.0508542 L42.0698668,30.2342833 L42.0672241,30.3414588 C42.0587854,30.6836872 41.8208383,30.9719921 41.4963008,31.051396 L41.3964847,31.0687952 L36.7680595,31.5592555 C36.3354564,31.6050971 35.9547292,31.274467 35.9394872,30.8397089 L35.9314123,30.6976377 L35.9138269,30.497635 L35.9138269,30.497635 L35.8850613,30.247327 L35.8850613,30.247327 C35.8268291,29.7921082 35.7350228,29.338097 35.6044593,28.921822 C35.5227744,28.6613861 35.4285043,28.425028 35.3221569,28.2184474 C35.2376106,28.0542156 35.1213436,27.8794837 34.9631265,27.6766093 L34.1871674,26.7628712 L34.1871674,26.7628712 L34.0514046,26.6060604 L34.0514046,26.6060604 L34.018,26.5659966 L34.1701505,26.383798 C36.6700265,23.3131098 37.75,20.5700842 37.75,16.956255 C37.75,16.4175417 37.7212001,15.8854089 37.6650243,15.361522 C37.9695452,15.3044532 38.2827691,15.2696438 38.6027267,15.2562521 L38.9074354,15.2499966 Z" id="Icon" fill="#DCDEE0"></path>
    </g>
</svg>