<?xml version="1.0" encoding="UTF-8"?>
<svg width="48px" height="48px" viewBox="0 0 48 48" version="1.1" xmlns="http://www.w3.org/2000/svg" xmlns:xlink="http://www.w3.org/1999/xlink">
    <title>Common / Lighting Experience Off</title>
    <g id="Common-/-Lighting-Experience-Off" stroke="none" stroke-width="1" fill="none" fill-rule="evenodd">
        <path d="M22.0199733,40.5 C21.9062241,40.5 21.8026832,40.5593197 21.7501836,40.6509956 C21.697684,40.7440196 21.7049756,40.8559181 21.7691418,40.9435494 C22.3583042,41.7322316 23.3280888,42.2013963 24.3620396,42.2013963 C25.3945321,42.2013963 26.3643167,41.7322316 26.9534791,40.9435494 C27.0191036,40.8559181 27.0263952,40.7453678 26.9738956,40.6509956 C26.9199376,40.5593197 26.8163967,40.5 26.7026476,40.5 L22.0199733,40.5 Z M28.6226734,37.3951414 C28.6757593,37.7711078 28.4402488,38.1212693 28.0847122,38.2216255 L27.9848985,38.2426336 L20.9026633,39.2426336 C20.4925181,39.3005454 20.1130828,39.0150039 20.055171,38.6048586 C20.0020852,38.2288922 20.2375956,37.8787307 20.5931322,37.7783745 L20.692946,37.7573664 L27.7751812,36.7573664 C28.1853264,36.6994546 28.5647616,36.9849961 28.6226734,37.3951414 Z M10.2659072,35.5 C10.3220141,35.5 10.3730859,35.531668 10.3997007,35.5806095 C10.4255962,35.6309905 10.4219996,35.6900082 10.3896302,35.7367905 C10.0990249,36.1578314 9.62067713,36.4082968 9.11139857,36.4082968 C8.60140069,36.4082968 8.12305288,36.1578314 7.8324476,35.7367905 C7.80079752,35.6900082 7.79720092,35.6302708 7.82309644,35.5806095 C7.84251808,35.5439034 7.87610134,35.5169136 7.91534923,35.5057128 L7.95617064,35.5 L10.2659072,35.5 Z M40.2659072,35.5 C40.3220141,35.5 40.3730859,35.531668 40.3997007,35.5806095 C40.4255962,35.6309905 40.4219996,35.6900082 40.3896302,35.7367905 C40.0990249,36.1578314 39.6206771,36.4082968 39.1113986,36.4082968 C38.6014007,36.4082968 38.1230529,36.1578314 37.8324476,35.7367905 C37.8007975,35.6900082 37.7972009,35.6302708 37.8230964,35.5806095 C37.8425181,35.5439034 37.8761013,35.5169136 37.9153492,35.5057128 L37.9561706,35.5 L40.2659072,35.5 Z M23.9777782,4.2499521 C30.6396386,4.2461501 35.6545447,9.49978552 36.2005858,15.8105921 C37.0253391,15.4427093 37.9377531,15.2494105 38.9074354,15.2499775 C42.7279375,15.2522999 45.5192841,18.3708857 45.5192841,21.9754241 C45.5192841,23.7527004 44.9996266,24.9976297 43.9423517,26.3150322 L43.6791067,26.6306829 L42.9524147,27.4737743 L42.8437536,27.6061063 C42.6394661,27.8656827 42.504467,28.0799516 42.4202549,28.2819888 C42.2437265,28.7055066 42.067452,29.849218 42.067452,30.322971 C42.067452,30.6717158 41.8282092,30.969354 41.4980963,31.0509595 L41.3964847,31.0687952 L36.7680595,31.5592555 C36.3354564,31.6050971 35.9547292,31.274467 35.9394872,30.8397089 L35.9314123,30.6976377 L35.9138269,30.497635 L35.8850613,30.247327 C35.8268291,29.7921082 35.7350228,29.338097 35.6044593,28.921822 C35.5227744,28.6613861 35.4285043,28.425028 35.3221569,28.2184474 C35.2376106,28.0542156 35.1213436,27.8794837 34.9631265,27.6766093 L34.7125304,27.3744892 L34.0514046,26.6060604 C33.6664469,26.1489955 33.3628151,25.7361199 33.1127274,25.3028276 L33.0073581,25.4364651 L32.6412426,25.8760923 L31.3801073,27.331505 L30.9913556,27.7964682 L30.673781,28.2009183 L30.5604103,28.3539833 C30.3535876,28.6383477 30.1841167,28.9027807 30.0476167,29.1568558 L29.9385163,29.3734691 L29.92493,29.4053208 L29.8634874,29.5714691 L29.7915903,29.7965321 L29.6667715,30.2356316 L29.5739963,30.5900615 L29.474973,30.9890703 L29.2906198,31.7774516 L29.1103921,32.5929686 C29.0803926,32.7319275 29.0504647,32.8720879 29.0206867,33.0129724 L28.8879614,33.6502284 L28.7169507,34.5007399 C28.6612654,34.7868002 28.4461546,35.0112393 28.1701983,35.0831535 L28.0640551,35.1027942 L20.1025166,35.9924075 C19.7477371,36.0320501 19.4197625,35.8168091 19.3086967,35.4873681 L19.2820744,35.3852505 L18.9712036,33.7507481 L18.6472873,32.1097987 L18.3422395,30.6555584 L18.1757579,29.9323518 L18.0752177,29.5495658 L18.0362417,29.4249123 L18.004995,29.3454694 C17.8846058,29.0957658 17.7326461,28.8380531 17.5447416,28.5627502 L17.3970051,28.3528253 L17.1652554,28.0438981 L16.8992071,27.7104404 L16.5845842,27.3336244 L15.3366759,25.8836362 L14.9731874,25.4442037 L14.7373685,25.1483023 L14.7373685,25.1483023 C14.525716,25.5384949 14.265251,25.9139824 13.9486253,26.3077408 L13.6791067,26.6306829 L12.9524147,27.4737743 L12.8437536,27.6061063 C12.6394661,27.8656827 12.504467,28.0799516 12.4202549,28.2819888 C12.2437265,28.7055066 12.067452,29.849218 12.067452,30.322971 C12.067452,30.6717158 11.8282092,30.969354 11.4980963,31.0509595 L11.3964847,31.0687952 L6.76805949,31.5592555 C6.33545642,31.6050971 5.9547292,31.274467 5.93948724,30.8397089 L5.93141232,30.6976377 L5.91382688,30.497635 L5.88506134,30.247327 C5.82682912,29.7921082 5.73502278,29.338097 5.60445933,28.921822 C5.52277437,28.6613861 5.42850435,28.425028 5.32215695,28.2184474 C5.23761064,28.0542156 5.12134357,27.8794837 4.96312652,27.6766093 L4.71253045,27.3744892 L4.05140463,26.6060604 C2.84237931,25.1705703 2.25,23.8726247 2.25,21.9754241 C2.25,18.3718428 5.07916883,15.2476984 8.90743584,15.2499801 C9.94932075,15.2506229 10.9226588,15.4751951 11.7932204,15.8989633 C12.2827882,9.76216765 17.0123666,4.57803794 23.3970955,4.26514192 L23.7124216,4.25369821 L23.9777782,4.2499521 Z M23.983,5.74898384 L23.7407897,5.75341325 C17.6955008,5.89628632 13.25,11.0424685 13.25,16.9561692 C13.25,19.9499275 14.1669506,22.0614517 16.1290274,24.4880299 L16.3797396,24.7930796 L17.9072549,26.5755821 L18.2171755,26.9549021 C18.3608496,27.1351994 18.4895315,27.3040426 18.6119371,27.4730865 C18.8571033,27.8116646 19.0631372,28.1344621 19.23424,28.4543319 L19.3560832,28.6938863 L19.4036834,28.8066898 L19.4565416,28.9588062 L19.5460179,29.2618778 L19.6851323,29.8086254 L19.8925661,30.7274182 L20.1394699,31.915622 L20.627,34.424 L27.352,33.673 L27.5532956,32.7018975 L27.7360202,31.855791 L27.7360202,31.855791 L27.8277216,31.4458963 L28.0171539,30.6358517 L28.1969998,29.9238028 L28.2530866,29.7167904 L28.3599723,29.3483657 C28.4462463,29.0667047 28.5257602,28.848486 28.600267,28.6940365 C28.75447,28.3741983 28.9429395,28.0548378 29.1698629,27.7230572 L29.4096368,27.3867805 L29.7457467,26.9513741 L30.0587307,26.5705973 L30.4277801,26.1385222 L31.3875559,25.0346051 L31.8451262,24.4882104 C33.8246826,22.0595877 34.75,19.9484339 34.75,16.956255 C34.75,10.938538 30.1664391,5.74642624 23.983,5.74898384 Z M11.8142276,32.9100208 C11.8597806,33.2869741 11.6173113,33.6323535 11.2598379,33.7255761 L11.1596239,33.7445829 L7.02209519,34.2445829 C6.61087339,34.2942771 6.2372272,34.001201 6.18753307,33.5899792 C6.14198011,33.2130259 6.38444935,32.8676465 6.74192273,32.7744239 L6.84213682,32.7554171 L10.9796655,32.2554171 C11.3908873,32.2057229 11.7645335,32.498799 11.8142276,32.9100208 Z M41.8142276,32.9100208 C41.8597806,33.2869741 41.6173113,33.6323535 41.2598379,33.7255761 L41.1596239,33.7445829 L37.0220952,34.2445829 C36.6108734,34.2942771 36.2372272,34.001201 36.1875331,33.5899792 C36.1419801,33.2130259 36.3844494,32.8676465 36.7419227,32.7744239 L36.8421368,32.7554171 L40.9796655,32.2554171 C41.3908873,32.2057229 41.7645335,32.498799 41.8142276,32.9100208 Z M8.90653256,16.7499977 C5.94228656,16.7482173 3.75,19.1690767 3.75,21.9754241 C3.75,23.3766334 4.14373381,24.326908 5.01751379,25.4192325 L5.27672025,25.7295408 L5.97144987,26.5408603 L6.09953567,26.6959184 L6.14595052,26.7541521 C6.35741564,27.0253039 6.52357518,27.2750168 6.65581033,27.5318845 C6.80400873,27.819761 6.92967161,28.1348287 7.03571111,28.4729141 C7.15556412,28.855041 7.24670956,29.2531379 7.31375469,29.6547176 L7.362,29.987 L10.612,29.643 L10.6188745,29.5876169 C10.6847868,29.0252938 10.8086577,28.3683238 10.9586731,27.9138675 L11.0357122,27.7048912 C11.1507667,27.4288585 11.3042636,27.1665463 11.5052393,26.8894625 L11.7137777,26.6178364 L12.1068307,26.1538969 L12.5927956,25.5940497 C13.1511799,24.9342335 13.5027191,24.3877273 13.7317936,23.7432558 C12.5126056,21.856312 11.8643085,19.9669886 11.7638364,17.6160941 L11.7811057,17.6261394 C10.9653811,17.0578037 9.99313537,16.7506544 8.90653256,16.7499977 Z M38.9065347,16.7499953 C37.9149537,16.7494033 37.0143871,17.0039326 36.2397273,17.4787408 C36.156532,19.9857998 35.4538875,21.9654596 34.1086754,23.9621348 L34.1393358,24.0139763 L34.1393358,24.0139763 L34.1663698,24.0691099 C34.3684662,24.5265261 34.6290774,24.9340639 35.0023944,25.4009014 L35.2767203,25.7295408 L35.9714499,26.5408603 L36.0995357,26.6959184 L36.1459505,26.7541521 C36.3574156,27.0253039 36.5235752,27.2750168 36.6558103,27.5318845 C36.8040087,27.819761 36.9296716,28.1348287 37.0357111,28.4729141 C37.1555641,28.855041 37.2467096,29.2531379 37.3137547,29.6547176 L37.362,29.987 L40.612,29.643 L40.6188745,29.5876169 C40.6847868,29.0252938 40.8086577,28.3683238 40.9586731,27.9138675 L41.0357122,27.7048912 C41.1507667,27.4288585 41.3042636,27.1665463 41.5052393,26.8894625 L41.7137777,26.6178364 L42.1068307,26.1538969 L42.5927956,25.5940497 C43.5777515,24.4301739 44.0192841,23.4612346 44.0192841,21.9754241 C44.0192841,19.1643656 41.8598529,16.7517769 38.9065347,16.7499953 Z" id="Icon" fill="#DCDEE0"></path>
    </g>
</svg>