<?xml version="1.0" encoding="UTF-8"?>
<svg width="48px" height="48px" viewBox="0 0 48 48" version="1.1" xmlns="http://www.w3.org/2000/svg" xmlns:xlink="http://www.w3.org/1999/xlink">
    <title>Common / Queue</title>
    <g id="Common-/-Queue" stroke="none" stroke-width="1" fill="none" fill-rule="evenodd">
        <path d="M37.4347153,11.25 C37.8489288,11.25 38.1847153,11.5857864 38.1847153,12 C38.1847153,12.3796958 37.9025614,12.693491 37.5364858,12.7431534 L37.4347153,12.75 L33,12.75 L33,32 C33,34.6233526 30.3137085,36.75 27,36.75 C23.6862915,36.75 21,34.6233526 21,32 C21,29.3766474 23.6862915,27.25 27,27.25 C28.7924805,27.25 30.4013762,27.8722656 31.5008128,28.8588127 L31.5,12 C31.5,11.6203042 31.7821539,11.306509 32.1482294,11.2568466 L32.25,11.25 L37.4347153,11.25 Z M37.2429733,35 C37.6558619,35 38,35.3357864 38,35.75 C38,36.1323429 37.7152026,36.4439322 37.3456974,36.4932085 L37.2429733,36.5 L35.7570267,36.5 C35.3785455,36.5 35.0578338,36.2178461 35.0070102,35.8517706 L35,35.75 L35.0069108,35.6476228 C35.0524814,35.3131724 35.3183887,35.0515882 35.6543026,35.0067915 L35.7570267,35 L37.2429733,35 Z M19.2483747,35 C19.6672821,35 20,35.3357864 20,35.75 C20,36.1323429 19.7172347,36.4439322 19.3503658,36.4932085 L19.2483747,36.5 L10.7516253,36.5 C10.3676268,36.5 10.0560515,36.2178461 10.006789,35.8517706 L10,35.75 L10.0068615,35.6476228 C10.0521069,35.3131724 10.316117,35.0515882 10.6496342,35.0067915 L10.7516253,35 L19.2483747,35 Z M37.2429733,27 C37.6558619,27 38,27.3357864 38,27.75 C38,28.1323429 37.7152026,28.4439322 37.3456974,28.4932085 L37.2429733,28.5 L35.7570267,28.5 C35.3785455,28.5 35.0578338,28.2178461 35.0070102,27.8517706 L35,27.75 L35.0069108,27.6476228 C35.0524814,27.3131724 35.3183887,27.0515882 35.6543026,27.0067915 L35.7570267,27 L37.2429733,27 Z M19.2483747,27 C19.6672821,27 20,27.3357864 20,27.75 C20,28.1323429 19.7172347,28.4439322 19.3503658,28.4932085 L19.2483747,28.5 L10.7516253,28.5 C10.3676268,28.5 10.0560515,28.2178461 10.006789,27.8517706 L10,27.75 L10.0068615,27.6476228 C10.0521069,27.3131724 10.316117,27.0515882 10.6496342,27.0067915 L10.7516253,27 L19.2483747,27 Z M37.2429733,19.25 C37.6558619,19.25 38,19.5857864 38,20 C38,20.3823429 37.7152026,20.6939322 37.3456974,20.7432085 L37.2429733,20.75 L35.7570267,20.75 C35.3785455,20.75 35.0578338,20.4678461 35.0070102,20.1017706 L35,20 L35.0069108,19.8976228 C35.0524814,19.5631724 35.3183887,19.3015882 35.6543026,19.2567915 L35.7570267,19.25 L37.2429733,19.25 Z M28.2551775,19.25 C28.6702194,19.25 29,19.5857864 29,20 C29,20.3823429 28.7197939,20.6939322 28.3562455,20.7432085 L28.2551775,20.75 L10.7448225,20.75 C10.3643674,20.75 10.0555555,20.4678461 10.0067289,20.1017706 L10,20 L10.0067994,19.8976228 C10.0516353,19.5631724 10.3132559,19.3015882 10.6437545,19.2567915 L10.7448225,19.25 L28.2551775,19.25 Z M28.2551775,11.25 C28.6702194,11.25 29,11.5857864 29,12 C29,12.3823429 28.7197939,12.6939322 28.3562455,12.7432085 L28.2551775,12.75 L10.7448225,12.75 C10.3643674,12.75 10.0555555,12.4678461 10.0067289,12.1017706 L10,12 L10.0067994,11.8976228 C10.0516353,11.5631724 10.3132559,11.3015882 10.6437545,11.2567915 L10.7448225,11.25 L28.2551775,11.25 Z" id="Icon" fill="#DCDEE0"></path>
    </g>
</svg>