<?xml version="1.0" encoding="UTF-8"?>
<svg width="48px" height="48px" viewBox="0 0 48 48" version="1.1" xmlns="http://www.w3.org/2000/svg" xmlns:xlink="http://www.w3.org/1999/xlink">
    <title>Common / Refresh</title>
    <g id="Common-/-Refresh" stroke="none" stroke-width="1" fill="none" fill-rule="evenodd">
        <path d="M23.99936,8.125 C32.7678069,8.125 39.875,15.2313552 39.875,23.99808 C39.875,32.7663175 32.7675744,39.875 23.99936,39.875 C15.2322161,39.875 8.125,32.766108 8.125,23.99808 C8.125,22.8355828 8.25061035,21.6881152 8.4975007,20.5675074 C8.60147573,20.0955763 9.06833987,19.797289 9.54027094,19.901264 C10.012202,20.005239 10.3104893,20.4721031 10.2065143,20.9440342 C9.98679162,21.9413311 9.875,22.9625627 9.875,23.99808 C9.875,31.7997021 16.1988068,38.125 23.99936,38.125 C31.8010068,38.125 38.125,31.7998885 38.125,23.99808 C38.125,16.1978997 31.8013548,9.875 23.99936,9.875 C20.5307545,9.875 17.2630844,11.1299295 14.7190751,13.3513335 L17.1915102,15.8773333 L10.1149388,16.304 L10.5799184,9.12266667 L13.4925419,12.0994909 C16.3622147,9.56170586 20.0677747,8.125 23.99936,8.125 Z" id="Icon" fill="#DCDEE0" fill-rule="nonzero"></path>
    </g>
</svg>