<?xml version="1.0" encoding="UTF-8"?>
<svg width="48px" height="48px" viewBox="0 0 48 48" version="1.1" xmlns="http://www.w3.org/2000/svg" xmlns:xlink="http://www.w3.org/1999/xlink">
    <title>Common / Scene</title>
    <g id="Common-/-Scene" stroke="none" stroke-width="1" fill="none" fill-rule="evenodd">
        <path d="M23.608,9.90068966 C26.2589668,9.90068966 28.408,12.0418416 28.408,14.7049478 L28.408,33.8964315 C28.408,36.4780387 26.3684544,38.5840557 23.8213968,38.6960087 L23.608,38.7006897 C20.9570332,38.7006897 18.808,36.5595377 18.808,33.8964315 L18.808,14.7049478 C18.808,12.1233406 20.8475456,10.0173236 23.3946032,9.90537064 L23.608,9.90068966 Z M23.62,11.4 L23.4604704,11.4039238 C21.7653348,11.4784315 20.4047574,12.8380399 20.3129401,14.5231936 L20.308,14.7049478 L20.308,33.8964315 C20.308,35.6644128 21.6820072,37.0986685 23.3907873,37.1958051 L23.5751045,37.2010504 L23.7555296,37.1974555 C25.4506652,37.1229478 26.8112426,35.7633394 26.9030599,34.0781857 L26.908,33.8964315 L26.908,14.7049478 C26.908,12.9369665 25.5339928,11.5027108 23.7956042,11.4058989 L23.62,11.4 Z" id="Icon" fill="#DCDEE0" fill-rule="nonzero"></path>
    </g>
</svg>