<?xml version="1.0" encoding="UTF-8"?>
<svg width="48px" height="48px" viewBox="0 0 48 48" version="1.1" xmlns="http://www.w3.org/2000/svg" xmlns:xlink="http://www.w3.org/1999/xlink">
    <title>Common / Screen Brightness</title>
    <g id="Common-/-Screen-Brightness" stroke="none" stroke-width="1" fill="none" fill-rule="evenodd">
        <path d="M24,17.25 C20.2720779,17.25 17.25,20.2720779 17.25,24 C17.25,27.7279221 20.2720779,30.75 24,30.75 C27.7279221,30.75 30.75,27.7279221 30.75,24 C30.75,20.2720779 27.7279221,17.25 24,17.25 Z M24,18.75 C26.8994949,18.75 29.25,21.1005051 29.25,24 C29.25,26.8994949 26.8994949,29.25 24,29.25 C21.1005051,29.25 18.75,26.8994949 18.75,24 C18.75,21.1005051 21.1005051,18.75 24,18.75 Z M24,7.25 C24.3796958,7.25 24.693491,7.53215388 24.7431534,7.89822944 L24.75,8 L24.75,12 C24.75,12.4142136 24.4142136,12.75 24,12.75 C23.6203042,12.75 23.306509,12.4678461 23.2568466,12.1017706 L23.25,12 L23.25,8 C23.25,7.58578644 23.5857864,7.25 24,7.25 Z M24,35.25 C24.3796958,35.25 24.693491,35.5321539 24.7431534,35.8982294 L24.75,36 L24.75,40 C24.75,40.4142136 24.4142136,40.75 24,40.75 C23.6203042,40.75 23.306509,40.4678461 23.2568466,40.1017706 L23.25,40 L23.25,36 C23.25,35.5857864 23.5857864,35.25 24,35.25 Z M40.75,24 C40.75,24.3796958 40.4678461,24.693491 40.1017706,24.7431534 L40,24.75 L36,24.75 C35.5857864,24.75 35.25,24.4142136 35.25,24 C35.25,23.6203042 35.5321539,23.306509 35.8982294,23.2568466 L36,23.25 L40,23.25 C40.4142136,23.25 40.75,23.5857864 40.75,24 Z M12.75,24 C12.75,24.3796958 12.4678461,24.693491 12.1017706,24.7431534 L12,24.75 L8,24.75 C7.58578644,24.75 7.25,24.4142136 7.25,24 C7.25,23.6203042 7.53215388,23.306509 7.89822944,23.2568466 L8,23.25 L12,23.25 C12.4142136,23.25 12.75,23.5857864 12.75,24 Z M35.8440386,35.8440386 C35.5755531,36.112524 35.1541535,36.1348978 34.8601824,35.9111599 L34.7833784,35.8440386 L31.9549513,33.0156115 C31.6620581,32.7227182 31.6620581,32.2478445 31.9549513,31.9549513 C32.2234367,31.6864658 32.6448364,31.6640921 32.9388075,31.8878299 L33.0156115,31.9549513 L35.8440386,34.7833784 C36.1369318,35.0762716 36.1369318,35.5511454 35.8440386,35.8440386 Z M16.0450487,16.0450487 C15.7765633,16.3135342 15.3551636,16.3359079 15.0611925,16.1121701 L14.9843885,16.0450487 L12.1559614,13.2166216 C11.8630682,12.9237284 11.8630682,12.4488546 12.1559614,12.1559614 C12.4244469,11.887476 12.8458465,11.8651022 13.1398176,12.0888401 L13.2166216,12.1559614 L16.0450487,14.9843885 C16.3379419,15.2772818 16.3379419,15.7521555 16.0450487,16.0450487 Z M12.1559614,35.8440386 C11.887476,35.5755531 11.8651022,35.1541535 12.0888401,34.8601824 L12.1559614,34.7833784 L14.9843885,31.9549513 C15.2772818,31.6620581 15.7521555,31.6620581 16.0450487,31.9549513 C16.3135342,32.2234367 16.3359079,32.6448364 16.1121701,32.9388075 L16.0450487,33.0156115 L13.2166216,35.8440386 C12.9237284,36.1369318 12.4488546,36.1369318 12.1559614,35.8440386 Z M31.9549513,16.0450487 C31.6864658,15.7765633 31.6640921,15.3551636 31.8878299,15.0611925 L31.9549513,14.9843885 L34.7833784,12.1559614 C35.0762716,11.8630682 35.5511454,11.8630682 35.8440386,12.1559614 C36.112524,12.4244469 36.1348978,12.8458465 35.9111599,13.1398176 L35.8440386,13.2166216 L33.0156115,16.0450487 C32.7227182,16.3379419 32.2478445,16.3379419 31.9549513,16.0450487 Z" id="Icon" fill="#FFFFFF" fill-rule="nonzero"></path>
    </g>
</svg>