<?xml version="1.0" encoding="UTF-8"?>
<svg width="48px" height="48px" viewBox="0 0 48 48" version="1.1" xmlns="http://www.w3.org/2000/svg" xmlns:xlink="http://www.w3.org/1999/xlink">
    <title>Common / Search Left</title>
    <g id="Common-/-Search-Left" stroke="none" stroke-width="1" fill="none" fill-rule="evenodd">
        <path d="M21,9 C27.3512746,9 32.5,14.1487254 32.5,20.5 C32.5,23.6832711 31.2066228,26.5644577 29.1167064,28.6467221 L37.0925697,36.621822 C37.3874646,36.9167169 37.3911293,37.3911714 37.0961941,37.6861066 C36.8033009,37.9789998 36.3293975,37.9799702 36.0319095,37.6824822 L27.9846032,29.6366837 C26.0482983,31.1191469 23.6270163,32 21,32 C14.6487254,32 9.5,26.8512746 9.5,20.5 C9.5,14.1487254 14.6487254,9 21,9 Z M21,10.5 C15.4771525,10.5 11,14.9771525 11,20.5 C11,26.0228475 15.4771525,30.5 21,30.5 C26.5228475,30.5 31,26.0228475 31,20.5 C31,14.9771525 26.5228475,10.5 21,10.5 Z" id="Icon" fill="#DCDEE0" fill-rule="nonzero"></path>
    </g>
</svg>