<?xml version="1.0" encoding="UTF-8"?>
<svg width="48px" height="48px" viewBox="0 0 48 48" version="1.1" xmlns="http://www.w3.org/2000/svg" xmlns:xlink="http://www.w3.org/1999/xlink">
    <title>Common / Search Right</title>
    <g id="Common-/-Search-Right" stroke="none" stroke-width="1" fill="none" fill-rule="evenodd">
        <path d="M27,9 C33.3512746,9 38.5,14.1487254 38.5,20.5 C38.5,26.8512746 33.3512746,32 27,32 C24.3725851,32 21.9509669,31.1188796 20.0145154,29.6360087 L11.9680905,37.6824822 C11.6706025,37.9799702 11.1966991,37.9789998 10.9038059,37.6861066 C10.635683,37.4179837 10.6143369,37.0014978 10.8342305,36.70643 L10.9074303,36.621822 L18.8832936,28.6467221 C16.7933772,26.5644577 15.5,23.6832711 15.5,20.5 C15.5,14.1487254 20.6487254,9 27,9 Z M27,10.5 C21.4771525,10.5 17,14.9771525 17,20.5 C17,26.0228475 21.4771525,30.5 27,30.5 C32.5228475,30.5 37,26.0228475 37,20.5 C37,14.9771525 32.5228475,10.5 27,10.5 Z" id="Icon" fill="#DCDEE0" fill-rule="nonzero"></path>
    </g>
</svg>