<?xml version="1.0" encoding="UTF-8"?>
<svg width="48px" height="48px" viewBox="0 0 48 48" version="1.1" xmlns="http://www.w3.org/2000/svg" xmlns:xlink="http://www.w3.org/1999/xlink">
    <title>Common / Settings</title>
    <g id="Common-/-Settings" stroke="none" stroke-width="1" fill="none" fill-rule="evenodd">
        <path d="M16.792,37.8848 C18.7243634,38.8861385 20.8436682,39.470201 23.0144,39.6 C23.0168,39.6 23.0184,39.5984 23.0192,39.5952 C23.4448,36.9976 25.6648,35.1088 28.3184,35.0968 C29.9384,35.0968 31.4624,35.8488 32.4944,37.1496 C32.4944,37.1496 32.4968,37.1504 32.5008,37.148 C33.3836173,36.5762566 34.2069292,35.9174999 34.9584,35.1816 C35.776568,34.3721457 36.5040645,33.4759193 37.128,32.5088 C37.1296,32.5064 37.1288,32.5032 37.1264,32.5008 C35.0561067,30.8685805 34.485448,27.9704495 35.7824,25.6752 C36.5712,24.2648 37.9648,23.3032 39.5944,23.0344 C39.5976,23.0344 39.6,23.0304 39.6,23.028 C39.4756647,20.9011227 38.9158321,18.8224446 37.9552,16.9208 C37.9536,16.9168 37.9496,16.916 37.9472,16.9168 C35.9584,17.6544 33.6616,17.1312 32.1936,15.6 C30.7768,14.1216 30.3368,11.9896 31.0432,10.0504 C31.0448,10.0456 31.0432,10.0416 31.0408,10.04 C29.1138827,9.06866377 27.0054832,8.51009321 24.8504,8.4 C24.8288,8.4 24.8256,8.4024 24.8248,8.404 C24.348,10.9248 22.1376,12.7584 19.5552,12.772 C18.0056,12.772 16.5264,12.0792 15.492,10.876 C15.492,10.8744 15.4888,10.8744 15.4872,10.876 C14.6112251,11.4436047 13.7941063,12.0972462 13.048,12.8272 C12.2351087,13.6286955 11.5119127,14.5163274 10.8912,15.4744 C10.8888,15.4776 10.8896,15.4816 10.8928,15.484 C12.8303962,17.1583993 13.3219868,19.965148 12.0688,22.1984 C11.3048,23.5536 9.9664,24.5016 8.4048,24.8024 C8.4008,24.8024 8.3992,24.8056 8.3992,24.8088 C8.5088,26.9632 9.0392,29.0184 9.9784,30.9272 C9.9784,30.9272 9.9832,30.9288 9.9864,30.9272 C10.568662,30.7177713 11.1828195,30.6108554 11.8016,30.6112 C13.713544,30.6041108 15.4824766,31.6227815 16.436,33.28 C17.244,34.668 17.3712,36.348 16.7904,37.8776 C16.7898667,37.8802667 16.7904,37.8826667 16.792,37.8848 Z M24,29.3456 C26.9522934,29.3456 29.3456,26.9522934 29.3456,24 C29.3456,21.0477066 26.9522934,18.6544 24,18.6544 C21.0477066,18.6544 18.6544,21.0477066 18.6544,24 C18.6544,26.9522934 21.0477066,29.3456 24,29.3456 Z" id="Icon" stroke="#DCDEE0" stroke-width="1.5"></path>
    </g>
</svg>