<?xml version="1.0" encoding="UTF-8"?>
<svg width="48px" height="48px" viewBox="0 0 48 48" version="1.1" xmlns="http://www.w3.org/2000/svg" xmlns:xlink="http://www.w3.org/1999/xlink">
    <title>Common / Speaker</title>
    <g id="Common-/-Speaker" stroke="none" stroke-width="1" fill="none" fill-rule="evenodd">
        <path d="M34.2546469,7 C35.2151219,7 36,7.78636353 36,8.7563921 L36,8.7563921 L36,39.2436079 C36,40.2259805 35.2185788,41 34.2546469,41 L34.2546469,41 L13.7453531,41 C12.7848781,41 12,40.2136365 12,39.2436079 L12,39.2436079 L12,8.7563921 C12,7.77401948 12.7814212,7 13.7453531,7 L13.7453531,7 Z M34.2546469,8.5 L13.7453531,8.5 L13.6879076,8.50632211 C13.5779323,8.53124733 13.5,8.62767937 13.5,8.7563921 L13.5,8.7563921 L13.5,39.2436079 L13.506686,39.3025391 C13.5328702,39.4159973 13.6325708,39.5 13.7453531,39.5 L13.7453531,39.5 L34.2546469,39.5 L34.3120924,39.4936779 C34.4220677,39.4687527 34.5,39.3723206 34.5,39.2436079 L34.5,39.2436079 L34.5,8.7563921 L34.493314,8.6974609 C34.4671298,8.58400269 34.3674292,8.5 34.2546469,8.5 L34.2546469,8.5 Z M24,22 C27.8659932,22 31,25.1340068 31,29 C31,32.8659932 27.8659932,36 24,36 C20.1340068,36 17,32.8659932 17,29 C17,25.1340068 20.1340068,22 24,22 Z M24,23.5 C20.9624339,23.5 18.5,25.9624339 18.5,29 C18.5,32.0375661 20.9624339,34.5 24,34.5 C27.0375661,34.5 29.5,32.0375661 29.5,29 C29.5,25.9624339 27.0375661,23.5 24,23.5 Z M24,26.5 C25.3807119,26.5 26.5,27.6192881 26.5,29 C26.5,30.3807119 25.3807119,31.5 24,31.5 C22.6192881,31.5 21.5,30.3807119 21.5,29 C21.5,27.6192881 22.6192881,26.5 24,26.5 Z M24,11.25 C25.7949254,11.25 27.25,12.7050746 27.25,14.5 C27.25,16.2949254 25.7949254,17.75 24,17.75 C22.2050746,17.75 20.75,16.2949254 20.75,14.5 C20.75,12.7050746 22.2050746,11.25 24,11.25 Z M24,12.75 C23.0335017,12.75 22.25,13.5335017 22.25,14.5 C22.25,15.4664983 23.0335017,16.25 24,16.25 C24.9664983,16.25 25.75,15.4664983 25.75,14.5 C25.75,13.5335017 24.9664983,12.75 24,12.75 Z" id="Icon" fill="#DCDEE0" fill-rule="nonzero"></path>
    </g>
</svg>