<?xml version="1.0" encoding="UTF-8"?>
<svg width="48px" height="48px" viewBox="0 0 48 48" version="1.1" xmlns="http://www.w3.org/2000/svg" xmlns:xlink="http://www.w3.org/1999/xlink">
    <title>Common / Swap Down Up</title>
    <g id="Common-/-Swap-Down-Up" stroke="none" stroke-width="1" fill="none" fill-rule="evenodd">
        <path d="M7.25,4 L7.25,21 C7.25,21.4142136 7.58578644,21.75 8,21.75 L40,21.75 C40.7814299,21.75 41.0419594,20.7042751 40.3518664,20.3376632 L8.35186642,3.33766321 C7.85232799,3.07228342 7.25,3.43434544 7.25,4 Z M8.75,5.247 L36.99,20.25 L8.75,20.25 L8.75,5.247 Z M7.25,43.9989682 L7.25,26.9989682 C7.25,26.5847547 7.58578644,26.2489682 8,26.2489682 L40,26.2489682 C40.7814299,26.2489682 41.0419594,27.2946931 40.3518664,27.661305 L8.35186642,44.661305 C7.85232799,44.9266848 7.25,44.5646228 7.25,43.9989682 Z" id="Icon" fill="#FFFFFF" fill-rule="nonzero"></path>
    </g>
</svg>