<?xml version="1.0" encoding="UTF-8"?>
<svg width="48px" height="48px" viewBox="0 0 48 48" version="1.1" xmlns="http://www.w3.org/2000/svg" xmlns:xlink="http://www.w3.org/1999/xlink">
    <title>Common / Switch Screens</title>
    <g id="Common-/-Switch-Screens" stroke="none" stroke-width="1" fill="none" fill-rule="evenodd">
        <path d="M35.52,8 C37.9942357,8 40,10.0057643 40,12.48 L40,27.52 C40,29.9942357 37.9942357,32 35.52,32 L32,32 L32,35.52 C32,37.9942357 29.9942357,40 27.52,40 L12.48,40 C10.0057643,40 8,37.9942357 8,35.52 L8,20.48 C8,18.0057643 10.0057643,16 12.48,16 L16,16 L16,12.48 C16,10.0057643 18.0057643,8 20.48,8 L35.52,8 Z M16,17.5 L12.48,17.5 C10.8929703,17.5 9.59569686,18.7405938 9.50505874,20.3049024 L9.5,20.48 L9.5,35.52 C9.5,37.1070297 10.7405938,38.4043031 12.3049024,38.4949413 L12.48,38.5 L27.52,38.5 C29.1070297,38.5 30.4043031,37.2594062 30.4949413,35.6950976 L30.5,35.52 L30.5,32 L20.48,32 C18.0057643,32 16,29.9942357 16,27.52 L16,17.5 Z M27.52,17.5 L17.5,17.5 L17.5,27.52 C17.5,29.1070297 18.7405938,30.4043031 20.3049024,30.4949413 L20.48,30.5 L30.5,30.5 L30.5,20.48 C30.5,18.8929703 29.2594062,17.5956969 27.6950976,17.5050587 L27.52,17.5 Z M35.52,9.5 L20.48,9.5 C18.8929703,9.5 17.5956969,10.7405938 17.5050587,12.3049024 L17.5,12.48 L17.5,16 L27.52,16 C29.9942357,16 32,18.0057643 32,20.48 L32,30.5 L35.52,30.5 C37.1070297,30.5 38.4043031,29.2594062 38.4949413,27.6950976 L38.5,27.52 L38.5,12.48 C38.5,10.8929703 37.2594062,9.59569686 35.6950976,9.50505874 L35.52,9.5 Z" id="Icon" fill="#DCDEE0" fill-rule="nonzero"></path>
    </g>
</svg>