<?xml version="1.0" encoding="UTF-8"?>
<svg width="48px" height="48px" viewBox="0 0 48 48" version="1.1" xmlns="http://www.w3.org/2000/svg" xmlns:xlink="http://www.w3.org/1999/xlink">
    <title>Common / Tile Remove</title>
    <g id="Common-/-Tile-Remove" stroke="none" stroke-width="1" fill="none" fill-rule="evenodd">
        <path d="M24,7.25 C33.2510831,7.25 40.75,14.7489169 40.75,24 C40.75,33.2510831 33.2510831,40.75 24,40.75 C14.7489169,40.75 7.25,33.2510831 7.25,24 C7.25,14.7489169 14.7489169,7.25 24,7.25 Z M24,8.75 C15.577344,8.75 8.75,15.577344 8.75,24 C8.75,32.422656 15.577344,39.25 24,39.25 C32.422656,39.25 39.25,32.422656 39.25,24 C39.25,15.577344 32.422656,8.75 24,8.75 Z M30.2425112,18.4881335 C30.4995076,18.7633582 30.5094374,19.1806062 30.2816605,19.4665887 L30.2062056,19.5481721 L24.946,24.459 L30.2062056,29.3716462 C30.5089527,29.6543423 30.5252073,30.1289377 30.2425112,30.4316849 C29.9855148,30.7069095 29.5699239,30.7453635 29.2690274,30.5376868 L29.1824726,30.4679905 L23.847,25.485 L18.5118665,30.4679905 C18.2091194,30.7506866 17.7345239,30.734432 17.4518279,30.4316849 C17.1948314,30.1564602 17.1849017,29.7392121 17.4126786,29.4532297 L17.4881335,29.3716462 L22.748,24.459 L17.4881335,19.5481721 C17.1853864,19.2654761 17.1691318,18.7908806 17.4518279,18.4881335 C17.7088243,18.2129089 18.1244152,18.1744549 18.4253117,18.3821316 L18.5118665,18.4518279 L23.847,23.433 L29.1824726,18.4518279 C29.4852197,18.1691318 29.9598152,18.1853864 30.2425112,18.4881335 Z" id="Icon" fill="#DCDEE0" fill-rule="nonzero"></path>
    </g>
</svg>