<?xml version="1.0" encoding="UTF-8"?>
<svg width="48px" height="48px" viewBox="0 0 48 48" version="1.1" xmlns="http://www.w3.org/2000/svg" xmlns:xlink="http://www.w3.org/1999/xlink">
    <title>Common / TV &amp; Speaker</title>
    <g id="Common-/-TV-&amp;-Speaker" stroke="none" stroke-width="1" fill="none" fill-rule="evenodd">
        <path d="M35.256816,10.5 C36.2195499,10.5 37,11.2829916 37,12.2446921 L36.999,14 L41.3549025,14 C42.2634647,14 43,14.736248 43,15.646141 L43,38.353859 C43,39.2629975 42.272085,40 41.3549025,40 L26.6450975,40 C25.7365353,40 25,39.263752 25,38.353859 L25,36.75 L11,36.75 C10.5857864,36.75 10.25,36.4142136 10.25,36 C10.25,35.6203042 10.5321539,35.306509 10.8982294,35.2568466 L11,35.25 L25,35.25 L25,32.499 L6.74318403,32.5 C5.78045007,32.5 5,31.7170084 5,30.7553079 L5,12.2446921 C5,11.2811253 5.79101562,10.5 6.74318403,10.5 L35.256816,10.5 Z M41.3549025,15.4117647 L26.6450975,15.4117647 C26.5341311,15.4117647 26.446072,15.4816264 26.4198014,15.58233 L26.4117647,15.646141 L26.4117647,38.353859 C26.4117647,38.4622229 26.4841998,38.5527416 26.5830128,38.5799044 L26.6450975,38.5882353 L41.3549025,38.5882353 C41.4658689,38.5882353 41.553928,38.5183736 41.5801986,38.41767 L41.5882353,38.353859 L41.5882353,15.646141 C41.5882353,15.5377771 41.5158002,15.4472584 41.4169872,15.4200956 L41.3549025,15.4117647 Z M34,25.7941176 C36.8751294,25.7941176 39.2058824,28.1248706 39.2058824,31 C39.2058824,33.8751294 36.8751294,36.2058824 34,36.2058824 C31.1248706,36.2058824 28.7941176,33.8751294 28.7941176,31 C28.7941176,28.1248706 31.1248706,25.7941176 34,25.7941176 Z M34,27.2058824 C31.9045667,27.2058824 30.2058824,28.9045667 30.2058824,31 C30.2058824,33.0954333 31.9045667,34.7941176 34,34.7941176 C36.0954333,34.7941176 37.7941176,33.0954333 37.7941176,31 C37.7941176,28.9045667 36.0954333,27.2058824 34,27.2058824 Z M35.256816,12 L6.74318403,12 C6.63304049,12 6.53304863,12.0839784 6.50672735,12.1900826 L6.5,12.2446921 L6.5,30.7553079 C6.5,30.8705558 6.58086014,30.9680097 6.68779648,30.9935016 L6.74318403,31 L25,30.999 L25,15.646141 C25,14.7370025 25.727915,14 26.6450975,14 L35.499,14 L35.5,12.2446921 C35.5,12.1294442 35.4191399,12.0319903 35.3122035,12.0064984 L35.256816,12 Z M34,18.25 C35.1045695,18.25 36,19.1454305 36,20.25 C36,21.3545695 35.1045695,22.25 34,22.25 C32.8954305,22.25 32,21.3545695 32,20.25 C32,19.1454305 32.8954305,18.25 34,18.25 Z" id="Icon" fill="#DCDEE0" fill-rule="nonzero"></path>
    </g>
</svg>