<?xml version="1.0" encoding="UTF-8"?>
<svg width="48px" height="48px" viewBox="0 0 48 48" version="1.1" xmlns="http://www.w3.org/2000/svg" xmlns:xlink="http://www.w3.org/1999/xlink">
    <title>Common / User</title>
    <g id="Common-/-User" stroke="none" stroke-width="1" fill="none" fill-rule="evenodd">
        <path d="M23.9525333,7.89586667 L24.2710434,7.89890131 C33.1688802,8.06858521 40.3278667,15.3327301 40.3278667,24.2712 C40.3278667,33.3151975 32.996963,40.6465333 23.9525333,40.6465333 C14.9078692,40.6465333 7.57586667,33.314963 7.57586667,24.2712 C7.57586667,15.3329619 14.7359262,8.06859066 23.6340146,7.8989014 L23.9525333,7.89586667 Z M24.1359999,30.75 C20.1129057,30.75 16.3043576,32.1277889 13.2519364,34.6039044 C15.9575241,37.4055092 19.7516684,39.1465333 23.9525333,39.1465333 C28.2360799,39.1465333 32.0964963,37.3362547 34.8106241,34.4390229 L35.1346649,34.6984905 C32.0593755,32.1609494 28.2063217,30.75 24.1359999,30.75 Z M23.9525333,9.39586667 L23.6372838,9.39913952 C15.5661331,9.56687014 9.07586667,16.1603567 9.07586667,24.2712 C9.07586667,27.7460027 10.2674178,30.9425615 12.2642633,33.4746079 C15.5882428,30.7612084 19.7463917,29.25 24.1359999,29.25 C28.4229982,29.25 32.4917128,30.6919936 35.7809201,33.2923958 C37.6924888,30.7905189 38.8278667,27.6634906 38.8278667,24.2712 C38.8278667,16.160086 32.3386325,9.5668632 24.267772,9.39913939 L23.9525333,9.39586667 Z M24,14.5833333 L24.2278157,14.5875352 C27.4785065,14.7076356 30.0833333,17.387104 30.0833333,20.666017 C30.0833333,24.0213748 27.3557523,26.75 24,26.75 C20.645127,26.75 17.9166667,24.0209543 17.9166667,20.666017 C17.9166667,17.3875147 20.5223332,14.7076542 23.7722416,14.5875358 L24,14.5833333 Z M24,16.0833333 L23.7846157,16.0883324 C21.3574781,16.2012258 19.4166667,18.2119179 19.4166667,20.666017 C19.4166667,23.1925992 21.4736261,25.25 24,25.25 C26.5271966,25.25 28.5833333,23.1930761 28.5833333,20.666017 C28.5833333,18.2114547 26.6432983,16.2011993 24.2154508,16.0883313 L24,16.0833333 Z" id="Icon" fill="#DCDEE0" fill-rule="nonzero"></path>
    </g>
</svg>