<?xml version="1.0" encoding="UTF-8"?>
<svg width="48px" height="48px" viewBox="0 0 48 48" version="1.1" xmlns="http://www.w3.org/2000/svg" xmlns:xlink="http://www.w3.org/1999/xlink">
    <title>Common / Video Sources</title>
    <g id="Common-/-Video-Sources" stroke="none" stroke-width="1" fill="none" fill-rule="evenodd">
        <path d="M39.6105068,15.6 C40.8655556,15.6 41.9096114,16.584416 41.9944371,17.8301919 L42,17.9941072 L42,34.8058928 C42,36.0737293 41.0174812,37.1103005 39.7741062,37.1944804 L39.6105068,37.2 L10.7894932,37.2 C9.53444436,37.2 8.4903886,36.215584 8.40556286,34.9698081 L8.4,34.8058928 L8.4,17.9941072 C8.4,16.7262707 9.3825188,15.6896995 10.6258938,15.6055196 L10.7894932,15.6 L39.6105068,15.6 Z M39.6105068,17.1 L10.7894932,17.1 L10.677981,17.1069491 C10.2761371,17.1574022 9.95728687,17.4769861 9.90693575,17.8817448 L9.9,17.9941072 L9.9,34.8058928 L9.90703301,34.9173004 C9.95806763,35.319142 10.2808703,35.6419591 10.6791481,35.6929714 L10.7894932,35.7 L39.6105068,35.7 L39.722019,35.6930509 C40.1238629,35.6425978 40.4427131,35.3230139 40.4930643,34.9182552 L40.5,34.8058928 L40.5,17.9941072 L40.492967,17.8826996 C40.4419324,17.480858 40.1191297,17.1580409 39.7208519,17.1070286 L39.6105068,17.1 Z M21.5999987,20.3999987 C22.9500741,20.3999987 24.1761995,20.527883 25.2783748,20.7836516 C26.5781789,21.0854227 27.5149855,22.2060875 27.5945242,23.5238308 L27.6000118,23.7046862 L27.6000118,29.0953112 C27.6013844,30.4934364 26.6367849,31.7071524 25.2744851,32.0216284 C24.1799979,32.2738753 22.9551691,32.3999987 21.5999987,32.3999987 C20.2448326,32.3999987 19.0200069,32.2738753 17.9255215,32.0216284 C16.6224532,31.7208242 15.6832544,30.5972762 15.6052509,29.2765707 L15.5999987,29.0953112 L15.5999987,23.7046862 C15.6006091,22.3096589 16.5627469,21.0991407 17.9216319,20.7836516 C19.0238053,20.527883 20.2499276,20.3999987 21.5999987,20.3999987 Z M34.6396808,21.8081552 C34.7445862,21.9829975 34.8000013,22.1830635 34.8000013,22.3869629 L34.8000013,29.8130345 C34.8000013,30.4343549 34.2963216,30.9380345 33.6750013,30.9380345 C33.4711018,30.9380345 33.2710359,30.8826195 33.0961936,30.7777141 L29.5282576,28.6369525 C29.0764495,28.3658677 28.8000013,27.8776074 28.8000013,27.3507131 L28.8000013,24.8492843 C28.8000013,24.32239 29.0764495,23.8341298 29.5282576,23.5630449 L33.0961936,21.4222834 C33.6289714,21.1026167 34.3200141,21.2753774 34.6396808,21.8081552 Z M35.5605068,10.8 L35.5605068,12.3 L6.73949317,12.3 L6.59803663,12.3060288 C5.80819178,12.3736564 5.17813316,13.0023743 5.10674165,13.7938878 L5.1,13.9441072 L5.1,30.7558928 L3.6,30.7558928 L3.6,13.9441072 L3.60496799,13.7656739 C3.69399492,12.1711377 4.96880905,10.8941557 6.56128792,10.8049765 L6.73949317,10.8 L35.5605068,10.8 Z" id="Icon" fill="#DCDEE0" fill-rule="nonzero"></path>
    </g>
</svg>