<?xml version="1.0" encoding="UTF-8"?>
<svg width="48px" height="48px" viewBox="0 0 48 48" version="1.1" xmlns="http://www.w3.org/2000/svg" xmlns:xlink="http://www.w3.org/1999/xlink">
    <title>Common / Arw Rew</title>
    <g id="Common-/-Arw-Rew" stroke="none" stroke-width="1" fill="none" fill-rule="evenodd">
        <path d="M32.1555496,33.1356995 C32.3567095,33.4977873 32.2262517,33.9543898 31.8641639,34.1555496 C31.5322501,34.3399462 31.1209177,34.2456918 30.8997229,33.9498023 L30.8443137,33.8641639 L25.8443137,24.8641639 C25.7364485,24.6700065 25.7210392,24.4399126 25.7980858,24.2354877 L25.8443137,24.1356995 L30.8443137,15.1356995 C31.0454736,14.7736117 31.5020761,14.6431538 31.8641639,14.8443137 C32.1960777,15.0287103 32.333358,15.4277496 32.1989888,15.7718754 L32.1555496,15.8641639 L27.3579317,24.4999317 L32.1555496,33.1356995 Z M22.1555496,33.1356995 C22.3567095,33.4977873 22.2262517,33.9543898 21.8641639,34.1555496 C21.5322501,34.3399462 21.1209177,34.2456918 20.8997229,33.9498023 L20.8443137,33.8641639 L15.8443137,24.8641639 C15.7364485,24.6700065 15.7210392,24.4399126 15.7980858,24.2354877 L15.8443137,24.1356995 L20.8443137,15.1356995 C21.0454736,14.7736117 21.5020761,14.6431538 21.8641639,14.8443137 C22.1960777,15.0287103 22.333358,15.4277496 22.1989888,15.7718754 L22.1555496,15.8641639 L17.3579317,24.4999317 L22.1555496,33.1356995 Z" id="Icon" fill="#DCDEE0" fill-rule="nonzero"></path>
    </g>
</svg>