<?xml version="1.0" encoding="UTF-8"?>
<svg width="48px" height="48px" viewBox="0 0 48 48" version="1.1" xmlns="http://www.w3.org/2000/svg" xmlns:xlink="http://www.w3.org/1999/xlink">
    <title>Common / Arw Skip</title>
    <g id="Common-/-Arw-Skip" stroke="none" stroke-width="1" fill="none" fill-rule="evenodd">
        <path d="M16.1357678,14.844382 C16.4676816,14.6599855 16.879014,14.7542399 17.1002088,15.0501293 L17.155618,15.1357678 L22.155618,24.1357678 C22.2634831,24.3299251 22.2788925,24.5600191 22.2018459,24.764444 L22.155618,24.8642322 L17.155618,33.8642322 C16.9544581,34.22632 16.4978556,34.3567778 16.1357678,34.155618 C15.803854,33.9712214 15.6665737,33.5721821 15.8009429,33.2280563 L15.844382,33.1357678 L20.642,24.5 L15.844382,15.8642322 C15.6599855,15.5323184 15.7542399,15.120986 16.0501293,14.8997912 L16.1357678,14.844382 Z M26.1357678,14.844382 C26.4676816,14.6599855 26.879014,14.7542399 27.1002088,15.0501293 L27.155618,15.1357678 L32.155618,24.1357678 C32.2634831,24.3299251 32.2788925,24.5600191 32.2018459,24.764444 L32.155618,24.8642322 L27.155618,33.8642322 C26.9544581,34.22632 26.4978556,34.3567778 26.1357678,34.155618 C25.803854,33.9712214 25.6665737,33.5721821 25.8009429,33.2280563 L25.844382,33.1357678 L30.642,24.5 L25.844382,15.8642322 C25.6599855,15.5323184 25.7542399,15.120986 26.0501293,14.8997912 L26.1357678,14.844382 Z" id="Icon" fill="#DCDEE0" fill-rule="nonzero"></path>
    </g>
</svg>