<?xml version="1.0" encoding="UTF-8"?>
<svg width="48px" height="48px" viewBox="0 0 48 48" version="1.1" xmlns="http://www.w3.org/2000/svg" xmlns:xlink="http://www.w3.org/1999/xlink">
    <title>Common / Cal</title>
    <g id="Common-/-Cal" stroke="none" stroke-width="1" fill="none" fill-rule="evenodd">
        <path d="M32.25,6.25 C32.6296958,6.25 32.943491,6.53215388 32.9931534,6.89822944 L33,7 L33,9 L36,9 C38.209139,9 40,10.790861 40,13 L40,37 C40,39.209139 38.209139,41 36,41 L12,41 C9.790861,41 8,39.209139 8,37 L8,13 C8,10.790861 9.790861,9 12,9 L15,9 L15,7 C15,6.58578644 15.3357864,6.25 15.75,6.25 C16.1296958,6.25 16.443491,6.53215388 16.4931534,6.89822944 L16.5,7 L16.5,9 L31.5,9 L31.5,7 C31.5,6.58578644 31.8357864,6.25 32.25,6.25 Z M18,30.5 L9.5,30.5 L9.5,37 C9.5,38.3254834 10.5315359,39.4100387 11.8356243,39.4946823 L12,39.5 L18,39.5 L18,30.5 Z M28,30.5 L19.5,30.5 L19.5,39.5 L28,39.5 L28,30.5 Z M38.5,30.5 L29.5,30.5 L29.5,39.5 L36,39.5 C37.3254834,39.5 38.4100387,38.4684641 38.4946823,37.1643757 L38.5,37 L38.5,30.5 Z M18,20.5 L9.5,20.5 L9.5,29 L18,29 L18,20.5 Z M28,20.5 L19.5,20.5 L19.5,29 L28,29 L28,20.5 Z M38.5,20.5 L29.5,20.5 L29.5,29 L38.5,29 L38.5,20.5 Z M15,10.5 L12,10.5 C10.6745166,10.5 9.58996133,11.5315359 9.50531768,12.8356243 L9.5,13 L9.5,19 L38.5,19 L38.5,13 C38.5,11.6745166 37.4684641,10.5899613 36.1643757,10.5053177 L36,10.5 L33,10.5 L33,13 C33,13.4142136 32.6642136,13.75 32.25,13.75 C31.8703042,13.75 31.556509,13.4678461 31.5068466,13.1017706 L31.5,13 L31.5,10.5 L16.5,10.5 L16.5,13 C16.5,13.4142136 16.1642136,13.75 15.75,13.75 C15.3703042,13.75 15.056509,13.4678461 15.0068466,13.1017706 L15,13 L15,10.5 Z" id="Icon" fill="#DCDEE0" fill-rule="nonzero"></path>
    </g>
</svg>