<?xml version="1.0" encoding="UTF-8"?>
<svg width="48px" height="48px" viewBox="0 0 48 48" version="1.1" xmlns="http://www.w3.org/2000/svg" xmlns:xlink="http://www.w3.org/1999/xlink">
    <title>Common / Carat Up</title>
    <g id="Common-/-Carat-Up" stroke="none" stroke-width="1" fill="none" fill-rule="evenodd">
        <path d="M24,8 C32.836556,8 40,15.163444 40,24 C40,32.836556 32.836556,40 24,40 C15.163444,40 8,32.836556 8,24 C8,15.163444 15.163444,8 24,8 Z M24,9.5 C15.9918711,9.5 9.5,15.9918711 9.5,24 C9.5,32.0081289 15.9918711,38.5 24,38.5 C32.0081289,38.5 38.5,32.0081289 38.5,24 C38.5,15.9918711 32.0081289,9.5 24,9.5 Z M24.445788,19.2767431 L24.529986,19.3493309 L30.5377747,25.3493309 C30.8308578,25.6420341 30.8311658,26.1169077 30.5384627,26.4099909 C30.2723689,26.6764301 29.855721,26.7009064 29.5619682,26.4832424 L29.4778027,26.4106788 L24.000255,20.9412355 L18.3256578,26.6296791 C18.0597058,26.8962599 17.643071,26.9209579 17.3492025,26.7034503 L17.2649983,26.6309315 C16.9984175,26.3649796 16.9737195,25.9483448 17.1912271,25.6544762 L17.2637459,25.5702721 L23.469044,19.3503014 C23.7350961,19.0836203 24.15192,19.0590174 24.445788,19.2767431 Z" id="Icon" fill="#DCDEE0" fill-rule="nonzero"></path>
    </g>
</svg>