<?xml version="1.0" encoding="UTF-8"?>
<svg width="48px" height="48px" viewBox="0 0 48 48" version="1.1" xmlns="http://www.w3.org/2000/svg" xmlns:xlink="http://www.w3.org/1999/xlink">
    <title>Common / Carat Up Filled</title>
    <g id="Common-/-Carat-Up-Filled" stroke="none" stroke-width="1" fill="none" fill-rule="evenodd">
        <path d="M24,8 C32.836556,8 40,15.163444 40,24 C40,32.836556 32.836556,40 24,40 C15.163444,40 8,32.836556 8,24 C8,15.163444 15.163444,8 24,8 Z M23.1703573,19.1791522 L17.0230396,25.5791522 C16.7169738,25.8977987 16.7271725,26.404228 17.0458189,26.7102937 C17.3644654,27.0163595 17.8708947,27.0061609 18.1769604,26.6875144 L23.7473177,20.8881905 L29.3176749,26.6875144 C29.6237407,27.0061609 30.13017,27.0163595 30.4488165,26.7102937 C30.7674629,26.404228 30.7776615,25.8977987 30.4715958,25.5791522 L24.3242781,19.1791522 C24.00946,18.8513937 23.4851754,18.8513937 23.1703573,19.1791522 Z" id="Icon" fill="#DCDEE0"></path>
    </g>
</svg>