<?xml version="1.0" encoding="UTF-8"?>
<svg width="48px" height="48px" viewBox="0 0 48 48" version="1.1" xmlns="http://www.w3.org/2000/svg" xmlns:xlink="http://www.w3.org/1999/xlink">
    <title>Common / Carat Dn filled</title>
    <g id="Common-/-Carat-Dn-filled" stroke="none" stroke-width="1" fill="none" fill-rule="evenodd">
        <path d="M24,8 C32.836556,8 40,15.163444 40,24 C40,32.836556 32.836556,40 24,40 C15.163444,40 8,32.836556 8,24 C8,15.163444 15.163444,8 24,8 Z M29.5876223,21.3124856 L24.017265,27.1118095 L18.4469077,21.3124856 C18.140842,20.9938391 17.6344127,20.9836405 17.3157662,21.2897063 C16.9971198,21.595772 16.9869211,22.1022013 17.2929869,22.4208478 L23.4403046,28.8208478 C23.7551227,29.1486063 24.2794073,29.1486063 24.5942254,28.8208478 L30.7415431,22.4208478 C31.0476089,22.1022013 31.0374102,21.595772 30.7187638,21.2897063 C30.4001173,20.9836405 29.893688,20.9938391 29.5876223,21.3124856 Z" id="Icon" fill="#DCDEE0"></path>
    </g>
</svg>