<?xml version="1.0" encoding="UTF-8"?>
<svg width="48px" height="48px" viewBox="0 0 48 48" version="1.1" xmlns="http://www.w3.org/2000/svg" xmlns:xlink="http://www.w3.org/1999/xlink">
    <title>Common / Copy</title>
    <g id="Common-/-Copy" stroke="none" stroke-width="1" fill="none" fill-rule="evenodd">
        <path d="M12.4980379,15.16714 C12.8777336,15.16714 13.1915288,15.4492939 13.2411913,15.8153694 L13.2480379,15.91714 L13.2480379,36.4011302 L13.2548152,36.4605499 C13.2761058,36.551987 13.345638,36.6240663 13.4359938,36.6492405 L13.5072367,36.658896 L29.4423263,36.658896 L29.5440969,36.6657426 C29.9101725,36.715405 30.1923263,37.0292002 30.1923263,37.408896 C30.1923263,37.7885918 29.9101725,38.102387 29.5440969,38.1520494 L29.4423263,38.158896 L13.5072367,38.158896 L13.362915,38.1530834 C12.5088381,38.0839941 11.827587,37.4070374 11.7545285,36.5534997 L11.7480379,36.4011302 L11.7480379,15.91714 L11.7548845,15.8153694 C11.8045469,15.4492939 12.1183421,15.16714 12.4980379,15.16714 Z M33.9998842,10 C35.0588398,10 35.9185725,10.8158712 35.994542,11.8507228 L36,11.9999839 L36,31.4576412 C36,32.5162908 35.184075,33.3761815 34.1491552,33.4521661 L33.9998842,33.4576251 L18.4520949,33.4576251 C17.3931392,33.4576251 16.5334066,32.6417539 16.457437,31.6069024 L16.451979,31.4576412 L16.451979,11.9999839 C16.451979,10.9413344 17.2679041,10.0814437 18.3028239,10.0054591 L18.4520949,10 L33.9998842,10 Z M33.9998842,11.5 L18.4520949,11.5 L18.3616451,11.5079764 C18.1565364,11.5446733 17.9967173,11.7042854 17.9599674,11.9094787 L17.951979,11.9999839 L17.951979,31.4576412 L17.9599517,31.5480858 C17.9966327,31.753173 18.1561901,31.9129112 18.3615191,31.9496412 L18.4520949,31.9576251 L33.9998842,31.9576251 L34.090334,31.9496488 C34.2954427,31.9129519 34.4552617,31.7533397 34.4920116,31.5481464 L34.5,31.4576412 L34.5,11.9999839 L34.4920274,11.9095394 C34.4553463,11.7044522 34.295789,11.544714 34.0904599,11.5079839 L33.9998842,11.5 Z" id="Icon" fill="#DCDEE0" fill-rule="nonzero"></path>
    </g>
</svg>