<?xml version="1.0" encoding="UTF-8"?>
<svg width="48px" height="48px" viewBox="0 0 48 48" version="1.1" xmlns="http://www.w3.org/2000/svg" xmlns:xlink="http://www.w3.org/1999/xlink">
    <title>Common / Delete</title>
    <g id="Common-/-Delete" stroke="none" stroke-width="1" fill="none" fill-rule="evenodd">
        <path d="M26.2388764,9 C27.7638818,9 28.4273064,10.029746 28.5666691,10.5750904 L28.834,13 L35.2554102,13 C35.632367,13 35.9438986,13.2859779 35.9932028,13.6498712 L35.999,13.733 L35.99309,13.8183924 C35.9429961,14.1849025 35.6269519,14.4673913 35.2554102,14.4673913 L34.887,14.467 L33.1420467,37.153393 C33.0618933,38.1953873 32.1930103,39 31.1479377,39 L16.8520623,39 C15.8069897,39 14.9381067,38.1953873 14.8579533,37.153393 L13.113,14.467 L12.7445898,14.4673913 C12.367633,14.4673913 12.0561014,14.1814134 12.0067972,13.8175201 L12.001,13.733 L12.00691,13.6489989 C12.0570039,13.2824888 12.3730481,13 12.7445898,13 L19.165,13 L19.4347826,10.5644097 C19.5640526,10.0552062 20.173929,9.09694841 21.5478224,9.00684042 L21.7596719,9 L26.2388764,9 Z M33.38,14.5 L14.619,14.5 L16.353535,37.0383482 C16.3713469,37.2699025 16.5449572,37.4545666 16.7668143,37.4927444 L16.8520623,37.5 L31.1479377,37.5 C31.3801761,37.5 31.5776115,37.3410642 31.6326925,37.1227886 L31.646465,37.0383482 L33.38,14.5 Z M24.25,18 C24.6296958,18 24.943491,18.2821539 24.9931534,18.6482294 L25,18.75 L25,33.25 C25,33.6642136 24.6642136,34 24.25,34 C23.8703042,34 23.556509,33.7178461 23.5068466,33.3517706 L23.5,33.25 L23.5,18.75 C23.5,18.3357864 23.8357864,18 24.25,18 Z M19.75,18 C20.1296958,18 20.443491,18.2821539 20.4931534,18.6482294 L20.5,18.75 L20.5,33.25 C20.5,33.6642136 20.1642136,34 19.75,34 C19.3703042,34 19.056509,33.7178461 19.0068466,33.3517706 L19,33.25 L19,18.75 C19,18.3357864 19.3357864,18 19.75,18 Z M28.75,18 C29.1296958,18 29.443491,18.2821539 29.4931534,18.6482294 L29.5,18.75 L29.5,33.25 C29.5,33.6642136 29.1642136,34 28.75,34 C28.3703042,34 28.056509,33.7178461 28.0068466,33.3517706 L28,33.25 L28,18.75 C28,18.3357864 28.3357864,18 28.75,18 Z M26.2388764,10.5 L21.7596719,10.5 C21.4288642,10.5 21.214205,10.5807696 21.0597089,10.7147901 C21.0199428,10.7492859 20.9857072,10.7869058 20.9585064,10.8213405 L20.906,10.896 L20.673,13 L27.326,13 L27.092,10.887 L27.0622808,10.8334892 C26.9634581,10.6820071 26.7407049,10.5363289 26.3804457,10.5058261 L26.2388764,10.5 Z" id="Icon" fill="#DCDEE0" fill-rule="nonzero"></path>
    </g>
</svg>