<?xml version="1.0" encoding="UTF-8"?>
<svg width="48px" height="48px" viewBox="0 0 48 48" version="1.1" xmlns="http://www.w3.org/2000/svg" xmlns:xlink="http://www.w3.org/1999/xlink">
    <title>Common / Done</title>
    <g id="Common-/-Done" stroke="none" stroke-width="1" fill="none" fill-rule="evenodd">
        <path d="M24,8 C32.836556,8 40,15.163444 40,24 C40,32.836556 32.836556,40 24,40 C15.163444,40 8,32.836556 8,24 C8,15.163444 15.163444,8 24,8 Z M24,9.5 C15.9918711,9.5 9.5,15.9918711 9.5,24 C9.5,32.0081289 15.9918711,38.5 24,38.5 C32.0081289,38.5 38.5,32.0081289 38.5,24 C38.5,15.9918711 32.0081289,9.5 24,9.5 Z M32.6503824,19.4146559 C32.9467193,19.7439191 32.9469463,20.2362444 32.6682537,20.5650174 L32.5853441,20.6503824 L22.5853441,29.6503824 C22.2682579,29.93576 21.7972609,29.9478503 21.4674945,29.6944147 L21.3812816,29.6187184 L16.3812816,24.6187184 C16.0395728,24.2770097 16.0395728,23.7229903 16.3812816,23.3812816 C16.6945146,23.0680485 17.1861475,23.0419458 17.5291138,23.3029733 L17.6187184,23.3812816 L22.031,27.794 L31.4146559,19.3496176 C31.7738521,19.026341 32.3271057,19.0554596 32.6503824,19.4146559 Z" id="Icon" fill="#DCDEE0" fill-rule="nonzero"></path>
    </g>
</svg>