<?xml version="1.0" encoding="UTF-8"?>
<svg width="48px" height="48px" viewBox="0 0 48 48" version="1.1" xmlns="http://www.w3.org/2000/svg" xmlns:xlink="http://www.w3.org/1999/xlink">
    <title>Common / Field Info</title>
    <g id="Common-/-Field-Info" stroke="none" stroke-width="1" fill="none" fill-rule="evenodd">
        <path d="M24,13 C30.0753478,13 35,17.9246522 35,24 C35,30.0753478 30.0753478,35 24,35 C17.9246522,35 13,30.0753478 13,24 C13,17.9246522 17.9246522,13 24,13 Z M24,14.25 C18.6150081,14.25 14.25,18.6150081 14.25,24 C14.25,29.3849919 18.6150081,33.75 24,33.75 C29.3849919,33.75 33.75,29.3849919 33.75,24 C33.75,18.6150081 29.3849919,14.25 24,14.25 Z M24,22.6023179 C24.4460761,22.6023179 24.8141892,22.9361175 24.8681825,23.3675598 L24.875,23.4773179 L24.875,28.99962 C24.875,29.4828692 24.4832492,29.87462 24,29.87462 C23.5539239,29.87462 23.1858108,29.5408205 23.1318175,29.1093782 L23.125,28.99962 L23.125,23.4773179 C23.125,22.9940688 23.5167508,22.6023179 24,22.6023179 Z M24,18.75 C24.6903559,18.75 25.25,19.3096441 25.25,20 C25.25,20.6903559 24.6903559,21.25 24,21.25 C23.3096441,21.25 22.75,20.6903559 22.75,20 C22.75,19.3096441 23.3096441,18.75 24,18.75 Z" id="Icon" fill="#DCDEE0" fill-rule="nonzero"></path>
    </g>
</svg>