<?xml version="1.0" encoding="UTF-8"?>
<svg width="48px" height="48px" viewBox="0 0 48 48" version="1.1" xmlns="http://www.w3.org/2000/svg" xmlns:xlink="http://www.w3.org/1999/xlink">
    <title>Common / Filter Active</title>
    <g id="Common-/-Filter-Active" stroke="none" stroke-width="1" fill="none" fill-rule="evenodd">
        <path d="M24.0006826,8 C32.8379197,8 40,15.1623859 40,24 C40,32.8362488 32.8379197,40 24.0006826,40 C15.1634455,40 8,32.8362488 8,24 C8,15.1623859 15.1634455,8 24.0006826,8 Z M27.1286308,28.5 L20.8713692,28.5 C20.3858566,28.5 20,28.8917508 20,29.375 C20,29.8241861 20.3324145,30.1896677 20.7620665,30.2432377 L20.8713692,30.25 L27.1286308,30.25 C27.5767962,30.25 27.9400478,29.9162005 27.9932807,29.4847581 L28,29.375 L27.9932108,29.2645794 C27.9439223,28.8670664 27.6317812,28.5558681 27.2379335,28.5067623 L27.1286308,28.5 Z M29.1176113,23.5 L18.8823887,23.5 C18.3992615,23.5 18,23.8917508 18,24.375 C18,24.8241861 18.3366182,25.1896677 18.7717037,25.2432377 L18.8823887,25.25 L29.1176113,25.25 C29.5635749,25.25 29.9380789,24.9162005 29.9930561,24.4847581 L30,24.375 L29.9931249,24.2645794 C29.9432132,23.8670664 29.6271247,23.5558681 29.2282963,23.5067623 L29.1176113,23.5 Z M31.1169798,18.5 L16.8830202,18.5 C16.3955078,18.5 16,18.8917508 16,19.375 C16,19.8241861 16.3368591,20.1896677 16.772256,20.2432377 L16.8830202,20.25 L31.1169798,20.25 C31.5669912,20.25 31.9386082,19.9162005 31.9931173,19.4847581 L32,19.375 L31.99312,19.2645794 C31.9431725,18.8670664 31.6268578,18.5558681 31.227744,18.5067623 L31.1169798,18.5 Z" id="Icon" fill="#DCDEE0"></path>
    </g>
</svg>