<?xml version="1.0" encoding="UTF-8"?>
<svg width="48px" height="48px" viewBox="0 0 48 48" version="1.1" xmlns="http://www.w3.org/2000/svg" xmlns:xlink="http://www.w3.org/1999/xlink">
    <title>Common / Flip</title>
    <g id="Common-/-Flip" stroke="none" stroke-width="1" fill="none" fill-rule="evenodd">
        <path d="M31.8363393,28.5516495 L36.1785122,31.4157473 C36.6404096,31.7204149 36.6385956,32.2155753 36.1785122,32.5190464 L31.8363393,35.3831441 C31.3744419,35.6878117 31,35.4854499 31,34.9298466 L30.9995962,32.7495119 L12.5,32.75 C12.0857864,32.75 11.75,32.4142136 11.75,32 C11.75,31.6203042 12.0321539,31.306509 12.3982294,31.2568466 L12.5,31.25 L30.9995962,31.2495119 L31,29.0049471 C31,28.4499301 31.3762559,28.2481784 31.8363393,28.5516495 Z M16.1785122,12.5516495 C16.6079234,12.2684098 16.9643115,12.4252753 17.0099214,12.8986989 L17.0148515,13.0049471 L17.0145962,15.2495119 L35.5,15.25 C35.9142136,15.25 36.25,15.5857864 36.25,16 C36.25,16.3796958 35.9678461,16.693491 35.6017706,16.7431534 L35.5,16.75 L17.0145962,16.7495119 L17.0148515,18.9298466 C17.0148515,19.4484097 16.688671,19.6592602 16.2696405,19.4373628 L16.1785122,19.3831441 L11.8363393,16.5190464 C11.409119,16.2372518 11.3770391,15.7901741 11.7444569,15.4838096 L11.8363393,15.4157473 L16.1785122,12.5516495 Z" id="Icon" fill="#D9DBDD" fill-rule="nonzero"></path>
    </g>
</svg>