<?xml version="1.0" encoding="UTF-8"?>
<svg width="48px" height="48px" viewBox="0 0 48 48" version="1.1" xmlns="http://www.w3.org/2000/svg" xmlns:xlink="http://www.w3.org/1999/xlink">
    <title>Common / Funnel Active</title>
    <g id="Common-/-Funnel-Active" stroke="none" stroke-width="1" fill="none" fill-rule="evenodd">
        <path d="M36.5851322,8 C37.0061675,8 37.4130889,8.15179524 37.7312607,8.42754411 C38.4616329,9.06053337 38.5405774,10.1657562 37.9075881,10.8961284 L27.8451102,22.5066799 C27.5693614,22.8248516 27.4175661,23.231773 27.4175661,23.6528083 L27.4175661,32 L22.2069183,38.6994043 C22.0174621,38.9429908 21.7261566,39.0854637 21.4175661,39.0854637 C20.8652814,39.0854637 20.4175661,38.6377484 20.4175661,38.0854637 L20.4175661,23.6528083 C20.4175661,23.231773 20.2657709,22.8248516 19.990022,22.5066799 L9.92754411,10.8961284 C9.65179524,10.5779567 9.5,10.1710353 9.5,9.75 C9.5,8.78350169 10.2835017,8 11.25,8 L36.5851322,8 Z" id="Icon" fill="#DCDEE0" fill-rule="nonzero"></path>
    </g>
</svg>