<?xml version="1.0" encoding="UTF-8"?>
<svg width="48px" height="48px" viewBox="0 0 48 48" version="1.1" xmlns="http://www.w3.org/2000/svg" xmlns:xlink="http://www.w3.org/1999/xlink">
    <title>Common / Grid</title>
    <g id="Common-/-Grid" stroke="none" stroke-width="1" fill="none" fill-rule="evenodd">
        <path d="M11.744903,10 C10.7812197,10 10,10.7873535 10,11.744903 L10,20.255097 C10,21.2187803 10.7873535,22 11.744903,22 L20.255097,22 C21.2187803,22 22,21.2126465 22,20.255097 L22,11.744903 C22,10.7812197 21.2126465,10 20.255097,10 L11.744903,10 Z M11.744903,11.5 L20.255097,11.5 C20.3682862,11.5 20.4673655,11.5827086 20.4933639,11.6896712 L20.5,11.744903 L20.5,20.255097 C20.5,20.3682862 20.4172914,20.4673655 20.3103288,20.4933639 L20.255097,20.5 L11.744903,20.5 C11.6317138,20.5 11.5326345,20.4172914 11.5066361,20.3103288 L11.5,20.255097 L11.5,11.744903 C11.5,11.6317138 11.5827086,11.5326345 11.6896712,11.5066361 L11.744903,11.5 Z M11.744903,26 C10.7812197,26 10,26.7873535 10,27.744903 L10,36.255097 C10,37.2187803 10.7873535,38 11.744903,38 L20.255097,38 C21.2187803,38 22,37.2126465 22,36.255097 L22,27.744903 C22,26.7812197 21.2126465,26 20.255097,26 L11.744903,26 Z M11.744903,27.5 L20.255097,27.5 C20.3682862,27.5 20.4673655,27.5827086 20.4933639,27.6896712 L20.5,27.744903 L20.5,36.255097 C20.5,36.3682862 20.4172914,36.4673655 20.3103288,36.4933639 L20.255097,36.5 L11.744903,36.5 C11.6317138,36.5 11.5326345,36.4172914 11.5066361,36.3103288 L11.5,36.255097 L11.5,27.744903 C11.5,27.6317138 11.5827086,27.5326345 11.6896712,27.5066361 L11.744903,27.5 Z M27.744903,10 C26.7812197,10 26,10.7873535 26,11.744903 L26,20.255097 C26,21.2187803 26.7873535,22 27.744903,22 L36.255097,22 C37.2187803,22 38,21.2126465 38,20.255097 L38,11.744903 C38,10.7812197 37.2126465,10 36.255097,10 L27.744903,10 Z M27.744903,11.5 L36.255097,11.5 C36.3682862,11.5 36.4673655,11.5827086 36.4933639,11.6896712 L36.5,11.744903 L36.5,20.255097 C36.5,20.3682862 36.4172914,20.4673655 36.3103288,20.4933639 L36.255097,20.5 L27.744903,20.5 C27.6317138,20.5 27.5326345,20.4172914 27.5066361,20.3103288 L27.5,20.255097 L27.5,11.744903 C27.5,11.6317138 27.5827086,11.5326345 27.6896712,11.5066361 L27.744903,11.5 Z M27.744903,26 C26.7812197,26 26,26.7873535 26,27.744903 L26,36.255097 C26,37.2187803 26.7873535,38 27.744903,38 L36.255097,38 C37.2187803,38 38,37.2126465 38,36.255097 L38,27.744903 C38,26.7812197 37.2126465,26 36.255097,26 L27.744903,26 Z M27.744903,27.5 L36.255097,27.5 C36.3682862,27.5 36.4673655,27.5827086 36.4933639,27.6896712 L36.5,27.744903 L36.5,36.255097 C36.5,36.3682862 36.4172914,36.4673655 36.3103288,36.4933639 L36.255097,36.5 L27.744903,36.5 C27.6317138,36.5 27.5326345,36.4172914 27.5066361,36.3103288 L27.5,36.255097 L27.5,27.744903 C27.5,27.6317138 27.5827086,27.5326345 27.6896712,27.5066361 L27.744903,27.5 Z" id="Icon" fill="#DCDEE0" fill-rule="nonzero"></path>
    </g>
</svg>