<?xml version="1.0" encoding="UTF-8"?>
<svg width="48px" height="48px" viewBox="0 0 48 48" version="1.1" xmlns="http://www.w3.org/2000/svg" xmlns:xlink="http://www.w3.org/1999/xlink">
    <title>Common / Hide Keyboard</title>
    <g id="Common-/-Hide-Keyboard" stroke="none" stroke-width="1" fill="none" fill-rule="evenodd">
        <path d="M30.5664312,32.099163 L30.6327934,32.1882998 C30.8349581,32.5059871 30.7682007,32.9179798 30.4918407,33.1573403 L30.4027039,33.2237025 L24.4027039,37.0418843 C24.1877385,37.1786805 23.9204894,37.1957801 23.692453,37.0931829 L23.5973907,37.0418843 L17.5973907,33.2237025 C17.2479347,33.0013214 17.1449201,32.5377558 17.3673012,32.1882998 C17.5694658,31.8706125 17.9709565,31.7565958 18.3048355,31.9055692 L18.4027039,31.9582103 L23.9990473,35.5210473 L29.5973907,31.9582103 C29.915078,31.7560456 30.3270707,31.822803 30.5664312,32.099163 Z M35.0490818,10.25 C36.8229105,10.25 38.25,11.708752 38.25,13.5032378 L38.25,23.9967622 C38.25,25.7959874 36.8250492,27.25 35.0490818,27.25 L12.9509182,27.25 C11.1770895,27.25 9.75,25.791248 9.75,23.9967622 L9.75,13.5032378 C9.75,11.7040126 11.1749508,10.25 12.9509182,10.25 L35.0490818,10.25 Z M35.0490818,11.75 L12.9509182,11.75 C12.0102321,11.75 11.25,12.525737 11.25,13.5032378 L11.25,23.9967622 C11.25,24.9700988 12.0129733,25.75 12.9509182,25.75 L35.0490818,25.75 C35.9897679,25.75 36.75,24.974263 36.75,23.9967622 L36.75,13.5032378 C36.75,12.5299012 35.9870267,11.75 35.0490818,11.75 Z M32.5,22 L32.5,23.5 L15.5,23.5 L15.5,22 L32.5,22 Z M17.5,18 L17.5,19.5 L15.5,19.5 L15.5,18 L17.5,18 Z M22.5,18 L22.5,19.5 L20.5,19.5 L20.5,18 L22.5,18 Z M27.5,18 L27.5,19.5 L25.5,19.5 L25.5,18 L27.5,18 Z M32.5,18 L32.5,19.5 L30.5,19.5 L30.5,18 L32.5,18 Z M17.5,14 L17.5,15.5 L15.5,15.5 L15.5,14 L17.5,14 Z M22.5,14 L22.5,15.5 L20.5,15.5 L20.5,14 L22.5,14 Z M27.5,14 L27.5,15.5 L25.5,15.5 L25.5,14 L27.5,14 Z M32.5,14 L32.5,15.5 L30.5,15.5 L30.5,14 L32.5,14 Z" id="Shape" fill="#DCDEE0" fill-rule="nonzero"></path>
    </g>
</svg>