<?xml version="1.0" encoding="UTF-8"?>
<svg width="48px" height="48px" viewBox="0 0 48 48" version="1.1" xmlns="http://www.w3.org/2000/svg" xmlns:xlink="http://www.w3.org/1999/xlink">
    <title>Common / History</title>
    <g id="Common-/-History" stroke="none" stroke-width="1" fill="none" fill-rule="evenodd">
        <path d="M24.64,8.53 C33.5373073,8.53 40.75,15.7426927 40.75,24.64 C40.75,33.5373073 33.5373073,40.75 24.64,40.75 C15.7426927,40.75 8.53,33.5373073 8.53,24.64 C8.53,24.2257864 8.86578644,23.89 9.28,23.89 C9.69421356,23.89 10.03,24.2257864 10.03,24.64 C10.03,32.7088802 16.5711198,39.25 24.64,39.25 C32.7088802,39.25 39.25,32.7088802 39.25,24.64 C39.25,16.5711198 32.7088802,10.03 24.64,10.03 C21.9308025,10.03 19.3397334,10.7703278 17.0993156,12.1229785 L19.1015943,14.126146 C19.4488362,14.473388 19.336783,14.8321616 18.8571247,14.9263488 L12.4440633,16.1856375 C11.9618046,16.2803354 11.648135,15.9635547 11.7423222,15.4838964 L13.0016109,9.070835 C13.0963088,8.58857623 13.4548336,8.4793853 13.8018137,8.82636542 L16.009117,11.0339867 C18.5506921,9.41841069 21.5254967,8.53 24.64,8.53 Z M23.6523405,15.3318238 C24.0320362,15.3318238 24.3458314,15.6139776 24.3954938,15.9800532 L24.4023405,16.0818238 L24.402,24.755 L29.7931562,30.7267516 C30.0454865,31.0062605 30.048396,31.4236165 29.8158406,31.7057269 L29.739024,31.7860296 C29.4595152,32.0383599 29.0421591,32.0412694 28.7600487,31.808714 L28.6797461,31.7318974 L22.9023405,25.3322067 L22.9023405,16.0818238 C22.9023405,15.6676102 23.2381269,15.3318238 23.6523405,15.3318238 Z" id="Icon" fill="#DCDEE0" fill-rule="nonzero"></path>
    </g>
</svg>