<?xml version="1.0" encoding="UTF-8"?>
<svg width="48px" height="48px" viewBox="0 0 48 48" version="1.1" xmlns="http://www.w3.org/2000/svg" xmlns:xlink="http://www.w3.org/1999/xlink">
    <title>Common / Independet Audio</title>
    <g id="Common-/-Independet-Audio" stroke="none" stroke-width="1" fill="none" fill-rule="evenodd">
        <path d="M33.8911945,7.2 C35.0083899,7.2 35.9177594,8.07122214 35.9947231,9.17496117 L36,9.32685227 L36,39.0731477 C36,40.2037676 35.1361703,41.1173916 34.0417968,41.1946999 L33.8911945,41.2 L14.1088055,41.2 C12.9916101,41.2 12.0822406,40.3287779 12.0052769,39.2250388 L12,39.0731477 L12,9.32685227 C12,8.19623239 12.8638297,7.28260839 13.9582032,7.2053001 L14.1088055,7.2 L33.8911945,7.2 Z M14.1088055,8.7 C13.8027088,8.7 13.5500065,8.92625586 13.5065904,9.23266954 L13.5,9.32685227 L13.5,39.0731477 C13.5,39.3918443 13.7261522,39.6491523 14.0190825,39.6933017 L14.1088055,39.7 L33.8911945,39.7 C34.1972912,39.7 34.4499935,39.4737441 34.4934096,39.1673305 L34.5,39.0731477 L34.5,9.32685227 C34.5,9.00815566 34.2738478,8.7508477 33.9809175,8.7066983 L33.8911945,8.7 L14.1088055,8.7 Z M26.9131556,16.220762 C27.4942772,15.6462116 28.4697739,16.0104924 28.5535011,16.7933213 L28.5592702,16.9026161 L28.5592702,31.5973827 C28.5592702,32.4215512 27.6003844,32.8447348 26.9877232,32.3462679 L26.9064471,32.2725335 L22.636,27.966 L19.6029115,27.9663511 C18.7856295,27.9663511 18.1043181,27.3802009 17.9662618,26.6062343 L17.946842,26.4590119 L17.9407298,26.3164524 L17.9407298,22.1835479 C17.9407298,21.3189562 18.6098905,20.6117427 19.4596896,20.5396942 L19.6029115,20.5336492 L22.551,20.533 L26.9131556,16.220762 Z" id="Icon" fill="#DCDEE0" fill-rule="nonzero"></path>
    </g>
</svg>