<?xml version="1.0" encoding="UTF-8"?>
<svg width="48px" height="48px" viewBox="0 0 48 48" version="1.1" xmlns="http://www.w3.org/2000/svg" xmlns:xlink="http://www.w3.org/1999/xlink">
    <title>Common / List</title>
    <g id="Common-/-List" stroke="none" stroke-width="1" fill="none" fill-rule="evenodd">
        <path d="M38,11.75 C38,11.3357864 37.6660408,11 37.2510676,11 L10.7489324,11 C10.3697771,11 10.0564286,11.2797273 10.0068369,11.6476228 L10,11.75 C10,12.1642136 10.3339592,12.5 10.7489324,12.5 L37.2510676,12.5 C37.6302229,12.5 37.9435714,12.2202727 37.9931631,11.8523772 L38,11.75 Z M38,19.9500008 C38,19.5357872 37.6660408,19.2000008 37.2510676,19.2000008 L10.7489324,19.2000008 C10.3697771,19.2000008 10.0564286,19.4797281 10.0068369,19.8476236 L10,19.9500008 C10,20.3642143 10.3339592,20.7000008 10.7489324,20.7000008 L37.2510676,20.7000008 C37.6302229,20.7000008 37.9435714,20.4202735 37.9931631,20.052378 L38,19.9500008 Z M38,28 C38,27.5857864 37.6660408,27.25 37.2510676,27.25 L10.7489324,27.25 C10.3697771,27.25 10.0564286,27.5297273 10.0068369,27.8976228 L10,28 C10,28.4142136 10.3339592,28.75 10.7489324,28.75 L37.2510676,28.75 C37.6302229,28.75 37.9435714,28.4702727 37.9931631,28.1023772 L38,28 Z M38,36.25 C38,35.8357864 37.6660408,35.5 37.2510676,35.5 L10.7489324,35.5 C10.3697771,35.5 10.0564286,35.7797273 10.0068369,36.1476228 L10,36.25 C10,36.6642136 10.3339592,37 10.7489324,37 L37.2510676,37 C37.6302229,37 37.9435714,36.7202727 37.9931631,36.3523772 L38,36.25 Z" id="Icon" fill="#DCDEE0"></path>
    </g>
</svg>