<?xml version="1.0" encoding="UTF-8"?>
<svg width="48px" height="48px" viewBox="0 0 48 48" version="1.1" xmlns="http://www.w3.org/2000/svg" xmlns:xlink="http://www.w3.org/1999/xlink">
    <title>Common / Lock</title>
    <g id="Common-/-Lock" stroke="none" stroke-width="1" fill="none" fill-rule="evenodd">
        <path d="M25.7142857,10.25 C28.4367183,10.25 30.634681,12.541861 30.7456071,15.3894519 L30.75,15.6153846 L30.75,21 L32.75,21 C33.4403559,21 34,21.5596441 34,22.25 L34,35.75 C34,36.4403559 33.4403559,37 32.75,37 L15.25,37 C14.5596441,37 14,36.4403559 14,35.75 L14,22.25 C14,21.5596441 14.5596441,21 15.25,21 L17.25,21 L17.25,15.6153846 C17.25,12.7397471 19.3781567,10.3741518 22.0719035,10.2547298 L22.2857143,10.25 L25.7142857,10.25 Z M25.7142857,11.75 L22.2857143,11.75 C20.4084946,11.75 18.8533204,13.3595893 18.75494,15.4090189 L18.75,15.6153846 L18.75,21 L29.25,21 L29.25,15.6153846 C29.25,13.5379321 27.7553813,11.8613282 25.9008922,11.755322 L25.7142857,11.75 Z" id="Icon" fill="#FFFFFF"></path>
    </g>
</svg>