<?xml version="1.0" encoding="UTF-8"?>
<svg width="48px" height="48px" viewBox="0 0 48 48" version="1.1" xmlns="http://www.w3.org/2000/svg" xmlns:xlink="http://www.w3.org/1999/xlink">
    <title>Common / Multi View</title>
    <g id="Common-/-Multi-View" stroke="none" stroke-width="1" fill="none" fill-rule="evenodd">
        <path d="M38.256816,10.5 C39.2195499,10.5 40,11.2829916 40,12.2446921 L40,30.7553079 C40,31.7188747 39.2089844,32.5 38.256816,32.5 L9.74318403,32.5 C8.78045007,32.5 8,31.7170084 8,30.7553079 L8,12.2446921 C8,11.2811253 8.79101562,10.5 9.74318403,10.5 L38.256816,10.5 Z M23.25,22.25 L9.499,22.25 L9.5,30.7553079 C9.5,30.8705558 9.58086014,30.9680097 9.68779648,30.9935016 L9.74318403,31 L23.25,30.999 L23.25,22.25 Z M38.256816,12 L24.75,11.999 L24.75,30.999 L38.256816,31 C38.3669595,31 38.4669514,30.9160216 38.4932726,30.8099174 L38.5,30.7553079 L38.5,12.2446921 C38.5,12.1294442 38.4191399,12.0319903 38.3122035,12.0064984 L38.256816,12 Z M23.25,20.75 L23.25,11.999 L9.74318403,12 C9.63304049,12 9.53304863,12.0839784 9.50672735,12.1900826 L9.5,12.2446921 L9.499,20.75 L23.25,20.75 Z M34,35.25 C34.4142136,35.25 34.75,35.5857864 34.75,36 C34.75,36.3796958 34.4678461,36.693491 34.1017706,36.7431534 L34,36.75 L14,36.75 C13.5857864,36.75 13.25,36.4142136 13.25,36 C13.25,35.6203042 13.5321539,35.306509 13.8982294,35.2568466 L14,35.25 L34,35.25 Z" id="Icon" fill="#DCDEE0" fill-rule="nonzero"></path>
    </g>
</svg>