<?xml version="1.0" encoding="UTF-8"?>
<svg width="48px" height="48px" viewBox="0 0 48 48" version="1.1" xmlns="http://www.w3.org/2000/svg" xmlns:xlink="http://www.w3.org/1999/xlink">
    <title>Common / Password Show</title>
    <g id="Common-/-Password-Show" stroke="none" stroke-width="1" fill="none" fill-rule="evenodd">
        <path d="M24,17 C26.0493077,17 27.8852081,17.5733614 29.6634011,18.6710513 C30.7774862,19.3587832 31.7413349,20.1383315 33.0611719,21.37852 L33.6500874,21.9393072 L35.6539555,23.8802745 C36.1153482,24.3165365 36.1153482,25.0434635 35.6539555,25.4797255 L33.6500874,27.4206928 L33.0611719,27.98148 C31.7413349,29.2216685 30.7774862,30.0012168 29.6634011,30.6889487 C27.8852081,31.7866386 26.0493077,32.36 24,32.36 C21.9245056,32.36 20.0355051,31.7489061 18.1968175,30.5939051 C17.1374566,29.9284507 16.2090089,29.1838906 15.0209986,28.0759319 L14.4528338,27.5377277 L12.3402165,25.4741751 C11.8865945,25.0390319 11.8865945,24.3209681 12.3402165,23.8858249 L13.839277,22.4182947 C14.0523092,22.2092941 14.2563542,22.010965 14.4528338,21.8222723 L15.0209986,21.2840681 C16.2090089,20.1761094 17.1374566,19.4315493 18.1968175,18.7660949 C20.0355051,17.6110939 21.9245056,17 24,17 Z M24,18.5 C22.2616555,18.5 20.645039,18.9995984 18.9947056,20.0362817 C18.6740513,20.2377058 18.3648137,20.4477023 18.0497881,20.6805803 L17.6678779,20.9719327 C17.5389144,21.0733217 17.4079236,21.1792875 17.2738046,21.2907459 L16.8609614,21.6425147 L16.4227417,22.0327336 L15.9525388,22.4668974 L15.4437461,22.9505007 L13.674,24.68 L15.172814,26.1474407 L15.7033791,26.6578243 C15.788132,26.7383867 15.8711393,26.8167746 15.9525388,26.8931026 L16.4227417,27.3272664 L16.8609614,27.7174853 L17.2738046,28.0692541 C17.4079236,28.1807125 17.5389144,28.2866783 17.6678779,28.3880673 L18.0497881,28.6794197 C18.3648137,28.9122977 18.6740513,29.1222942 18.9947056,29.3237183 C20.645039,30.3604016 22.2616555,30.86 24,30.86 C25.7232965,30.86 27.2905337,30.3909527 28.8754765,29.4125573 L29.2273258,29.1884386 C29.3436234,29.1119661 29.4592608,29.0334587 29.5752132,28.9521106 L29.9249904,28.6987387 C30.1013267,28.5669861 30.280566,28.4270289 30.4659999,28.2761479 L30.8461023,27.9590147 C30.9111543,27.903463 30.9771385,27.8464962 31.0441766,27.7880133 L31.460029,27.4181195 L31.9070291,27.0070085 L32.3910286,26.5498458 L34.32,24.68 L32.6487317,23.0575159 L32.1440382,22.5755142 L31.6792698,22.1419817 C31.6048104,22.0734968 31.5317708,22.00683 31.460029,21.9418805 L31.0441766,21.5719867 C30.9771385,21.5135038 30.9111543,21.456537 30.8461023,21.4009853 L30.4659999,21.0838521 C30.3423773,20.9832648 30.2215078,20.8875325 30.1024163,20.7958495 L29.7494998,20.5321427 C29.5747331,20.4055575 29.4017723,20.2862702 29.2273258,20.1715614 L28.8754765,19.9474427 C27.2905337,18.9690473 25.7232965,18.5 24,18.5 Z M24,20 C26.5490065,20 28.6153846,22.0663781 28.6153846,24.6153846 C28.6153846,27.1643912 26.5490065,29.2307692 24,29.2307692 C21.4509935,29.2307692 19.3846154,27.1643912 19.3846154,24.6153846 C19.3846154,22.0663781 21.4509935,20 24,20 Z M24,21.5 C22.2794206,21.5 20.8846154,22.8948052 20.8846154,24.6153846 C20.8846154,26.335964 22.2794206,27.7307692 24,27.7307692 C25.7205794,27.7307692 27.1153846,26.335964 27.1153846,24.6153846 C27.1153846,22.8948052 25.7205794,21.5 24,21.5 Z" id="Icon" fill="#DCDEE0" fill-rule="nonzero"></path>
    </g>
</svg>