<?xml version="1.0" encoding="UTF-8"?>
<svg width="48px" height="48px" viewBox="0 0 48 48" version="1.1" xmlns="http://www.w3.org/2000/svg" xmlns:xlink="http://www.w3.org/1999/xlink">
    <title>Common / Password Hide</title>
    <g id="Common-/-Password-Hide" stroke="none" stroke-width="1" fill="none" fill-rule="evenodd">
        <path d="M21.4398588,20.4874339 C22.1974172,20.0100832 23.0794695,19.75 24,19.75 C26.6558399,19.75 28.8088235,21.9029836 28.8088235,24.5588235 C28.8088235,25.4796694 28.5485263,26.3617657 28.0713998,27.1189749 L30.2021422,29.2497173 C31.1055211,28.5940281 32.0486836,27.7568182 33.440769,26.4029933 C33.719611,26.1316314 34.0103289,25.8489191 34.302771,25.5651164 L34.3074239,25.560601 C34.7237995,25.156536 35.0155207,24.8747372 35.1386744,24.7582913 C35.2871085,24.6179419 35.2871085,24.3891169 35.1386744,24.2487676 C35.0155207,24.1323216 34.7237995,23.8505228 34.3074239,23.4464578 L34.302771,23.4419424 C34.0103289,23.1581397 33.719611,22.8754274 33.440769,22.6040655 C31.5708681,20.7855576 30.5109528,19.8991709 29.2694388,19.1327764 C27.5690769,18.0831321 25.8663312,17.5735294 24,17.5735294 C22.473238,17.5735294 21.0335934,17.9291351 19.6047322,18.6523074 L21.4398588,20.4874339 L21.4398588,20.4874339 Z M22.5405599,21.588135 L26.970693,26.0182681 C27.1909399,25.5709049 27.3088235,25.0743667 27.3088235,24.5588235 C27.3088235,22.7314108 25.8274128,21.25 24,21.25 C23.4845517,21.25 22.988054,21.3678067 22.5405599,21.588135 L22.5405599,21.588135 Z M18.4951998,17.5427749 C20.2671847,16.5633131 22.0750917,16.0735294 24,16.0735294 C26.1524007,16.0735294 28.1261632,16.6642428 30.0573634,17.856385 C31.4100341,18.6913974 32.5450229,19.6405665 34.4865488,21.5287308 C34.7655418,21.8002393 35.0556175,22.0823272 35.3474118,22.3655013 L35.3520514,22.3700038 C35.76252,22.7683364 36.052924,23.0488629 36.1692366,23.1588403 C36.9435878,23.8910148 36.9435878,25.116044 36.1692366,25.8482186 C36.052924,25.958196 35.76252,26.2387224 35.3520514,26.6370551 L35.3474118,26.6415576 C35.0556175,26.9247317 34.7655418,27.2068195 34.4865488,27.478328 C33.1429432,28.7850054 32.1855993,29.6419853 31.2750648,30.3226399 L34.4181528,33.465728 C34.7110461,33.7586212 34.7110461,34.2334949 34.4181528,34.5263881 C34.1252596,34.8192813 33.6503859,34.8192813 33.3574927,34.5263881 L13.9533674,15.1222629 C13.6604742,14.8293696 13.6604742,14.3544959 13.9533674,14.0616027 C14.2462606,13.7687095 14.7211343,13.7687095 15.0140276,14.0616027 L18.4951998,17.5427749 L18.4951998,17.5427749 Z M27.2204562,30.8755183 C27.6101152,30.7350235 28.0398897,30.937011 28.1803845,31.3266699 C28.3208792,31.7163289 28.1188918,32.1461034 27.7292328,32.2865982 C26.532382,32.7181327 25.298349,32.9335294 24,32.9335294 C21.8222282,32.9335294 19.7949401,32.3070172 17.7978734,31.052528 C16.4170595,30.1851477 15.2521142,29.2020061 13.314037,27.3006065 C13.0630948,27.0541987 12.8016033,26.7975065 12.5583736,26.5590491 L12.555675,26.5564033 C12.1739837,26.182205 11.9120754,25.9262854 11.821025,25.838944 C11.0596583,25.1085924 11.0596583,23.8984664 11.821025,23.1681149 C11.9120754,23.0807734 12.1739837,22.8248538 12.555675,22.4506555 L12.5583736,22.4480098 C12.8016033,22.2095523 13.0630948,21.9528601 13.314037,21.7064523 C14.2341219,20.8037798 14.9413201,20.1446531 15.5867678,19.5936183 C15.9017936,19.3246729 16.3751958,19.3620284 16.6441412,19.6770542 C16.9130866,19.99208 16.875731,20.4654822 16.5607052,20.7344276 C15.9456932,21.2594786 15.2619869,21.8967103 14.364517,22.7771959 C14.1140535,23.0231339 13.8521187,23.2802613 13.6057696,23.521777 C13.2184492,23.901494 12.9563097,24.1576395 12.859408,24.2505938 C12.7135307,24.3905287 12.7135307,24.6165301 12.859408,24.756465 C12.9563097,24.8494193 13.2184492,25.1055648 13.608474,25.4879332 C13.8521187,25.7267975 14.1140535,25.9839249 14.364517,26.229863 C16.2324319,28.062428 17.3231659,28.98294 18.5957615,29.7823411 C20.3616727,30.8916264 22.1151797,31.4335294 24,31.4335294 C25.1250021,31.4335294 26.1868852,31.2481809 27.2204562,30.8755183 Z M19.2111438,24.1181747 C19.2486931,23.7056667 19.6135367,23.4017025 20.0260448,23.4392518 C20.4385529,23.4768012 20.742517,23.8416448 20.7049677,24.2541529 C20.6957951,24.3549213 20.6911765,24.4565383 20.6911765,24.5588235 C20.6911765,26.3862363 22.1725872,27.8676471 24,27.8676471 C24.4142136,27.8676471 24.75,28.2034335 24.75,28.6176471 C24.75,29.0318606 24.4142136,29.3676471 24,29.3676471 C21.3441601,29.3676471 19.1911765,27.2146634 19.1911765,24.5588235 C19.1911765,24.4111264 19.1978573,24.2641367 19.2111438,24.1181747 Z" id="Shape" fill="#DCDEE0" fill-rule="nonzero"></path>
    </g>
</svg>