<?xml version="1.0" encoding="UTF-8"?>
<svg width="48px" height="48px" viewBox="0 0 48 48" version="1.1" xmlns="http://www.w3.org/2000/svg" xmlns:xlink="http://www.w3.org/1999/xlink">
    <title>Common / Power (Session)</title>
    <g id="Common-/-Power-(Session)" stroke="none" stroke-width="1" fill="none" fill-rule="evenodd">
        <path d="M29.1841225,16.4933447 C32.4534154,18.4118191 34.5033333,21.9069833 34.5033333,25.7629795 C34.5033333,31.7034297 29.688289,36.5190906 23.7481496,36.5190906 C17.8076994,36.5190906 12.9911111,31.7031189 12.9911111,25.7629795 C12.9911111,21.9821066 14.9623592,18.5410782 18.128138,16.5973489 C18.4811273,16.38062 18.9429752,16.4910809 19.1597041,16.8440703 C19.376433,17.1970596 19.2659721,17.6589075 18.9129827,17.8756363 C16.1867461,19.549495 14.4911111,22.5094106 14.4911111,25.7629795 C14.4911111,30.8746488 18.6360836,35.0190906 23.7481496,35.0190906 C28.8598188,35.0190906 33.0033333,30.8750455 33.0033333,25.7629795 C33.0033333,22.4451217 31.2403301,19.4391547 28.4249566,17.7870476 C28.0677104,17.5774097 27.9480502,17.1178594 28.1576881,16.7606132 C28.367326,16.403367 28.8268763,16.2837068 29.1841225,16.4933447 Z M23.625,11.7409256 C24.0046958,11.7409256 24.318491,12.0230795 24.3681534,12.3891551 L24.375,12.4909256 L24.375,24.9353701 C24.375,25.3495836 24.0392136,25.6853701 23.625,25.6853701 C23.2453042,25.6853701 22.931509,25.4032162 22.8818466,25.0371406 L22.875,24.9353701 L22.875,12.4909256 C22.875,12.0767121 23.2107864,11.7409256 23.625,11.7409256 Z" id="Icon" fill="#DCDEE0" fill-rule="nonzero"></path>
    </g>
</svg>