<?xml version="1.0" encoding="UTF-8"?>
<svg width="48px" height="48px" viewBox="0 0 48 48" version="1.1" xmlns="http://www.w3.org/2000/svg" xmlns:xlink="http://www.w3.org/1999/xlink">
    <title>Common / Power</title>
    <g id="Common-/-Power" stroke="none" stroke-width="1" fill="none" fill-rule="evenodd">
        <path d="M31.3488995,13.7656015 C35.6701301,16.3013701 38.3794444,20.9208226 38.3794444,26.017306 C38.3794444,33.8688742 32.0153461,40.2337875 24.1641994,40.2337875 C16.3126312,40.2337875 9.94648148,33.8684527 9.94648148,26.017306 C9.94648148,21.0200841 12.5518445,16.4721391 16.7362544,13.9029892 C17.1480753,13.6501388 17.6868978,13.7790099 17.9397482,14.1908307 C18.1925985,14.6026516 18.0637275,15.1414741 17.6519066,15.3943245 C13.9802958,17.6486252 11.6964815,21.6352721 11.6964815,26.017306 C11.6964815,32.9019042 17.2790794,38.4837875 24.1641994,38.4837875 C31.0487976,38.4837875 36.6294444,32.902426 36.6294444,26.017306 C36.6294444,21.5486508 34.2548639,17.4999283 30.4632059,15.2749215 C30.0464187,15.030344 29.9068152,14.4942019 30.1513927,14.0774147 C30.3959702,13.6606275 30.9321123,13.521024 31.3488995,13.7656015 Z M23.9814815,7.57123419 C24.3611772,7.57123419 24.6749724,7.85338807 24.7246349,8.21946363 L24.7314815,8.32123419 L24.7314815,24.9138268 C24.7314815,25.3280403 24.395695,25.6638268 23.9814815,25.6638268 C23.6017857,25.6638268 23.2879905,25.3816729 23.2383281,25.0155973 L23.2314815,24.9138268 L23.2314815,8.32123419 C23.2314815,7.90702063 23.5672679,7.57123419 23.9814815,7.57123419 Z" id="Icon" fill="#DCDEE0" fill-rule="nonzero"></path>
    </g>
</svg>