<?xml version="1.0" encoding="UTF-8"?>
<svg width="48px" height="48px" viewBox="0 0 48 48" version="1.1" xmlns="http://www.w3.org/2000/svg" xmlns:xlink="http://www.w3.org/1999/xlink">
    <title>Common / Pref Active</title>
    <g id="Common-/-Pref-Active" stroke="none" stroke-width="1" fill="none" fill-rule="evenodd">
        <path d="M20,11.25 C22.3681301,11.25 24.3315012,12.9829789 24.6911142,15.2499375 L35.5,15.25 C35.9142136,15.25 36.25,15.5857864 36.25,16 C36.25,16.3796958 35.9678461,16.693491 35.6017706,16.7431534 L35.5,16.75 L24.6909553,16.7510638 C24.3309231,19.0175314 22.3677814,20.75 20,20.75 C17.6322186,20.75 15.6690769,19.0175314 15.3090447,16.7510638 L12,16.75 C11.5857864,16.75 11.25,16.4142136 11.25,16 C11.25,15.6203042 11.5321539,15.306509 11.8982294,15.2568466 L12,15.25 L15.3088858,15.2499375 C15.6684988,12.9829789 17.6318699,11.25 20,11.25 Z M20,12.75 C18.2050746,12.75 16.75,14.2050746 16.75,16 C16.75,17.7949254 18.2050746,19.25 20,19.25 C21.7949254,19.25 23.25,17.7949254 23.25,16 C23.25,14.2050746 21.7949254,12.75 20,12.75 Z M28,27.25 C30.3681301,27.25 32.3315012,28.9829789 32.6911142,31.2499375 L36,31.25 C36.4142136,31.25 36.75,31.5857864 36.75,32 C36.75,32.3796958 36.4678461,32.693491 36.1017706,32.7431534 L36,32.75 L32.6909553,32.7510638 C32.3309231,35.0175314 30.3677814,36.75 28,36.75 C25.6322186,36.75 23.6690769,35.0175314 23.3090447,32.7510638 L12.5,32.75 C12.0857864,32.75 11.75,32.4142136 11.75,32 C11.75,31.6203042 12.0321539,31.306509 12.3982294,31.2568466 L12.5,31.25 L23.3088858,31.2499375 C23.6684988,28.9829789 25.6318699,27.25 28,27.25 Z M28,28.75 C26.2050746,28.75 24.75,30.2050746 24.75,32 C24.75,33.7949254 26.2050746,35.25 28,35.25 C29.7949254,35.25 31.25,33.7949254 31.25,32 C31.25,30.2050746 29.7949254,28.75 28,28.75 Z" id="Icon" fill="#D9DBDD" fill-rule="nonzero"></path>
    </g>
</svg>