<?xml version="1.0" encoding="UTF-8"?>
<svg width="48px" height="48px" viewBox="0 0 48 48" version="1.1" xmlns="http://www.w3.org/2000/svg" xmlns:xlink="http://www.w3.org/1999/xlink">
    <title>Common / Preset Menu</title>
    <g id="Common-/-Preset-Menu" stroke="none" stroke-width="1" fill="none" fill-rule="evenodd">
        <path d="M33.312193,7.58288029 C34.4293885,7.58288029 35.338758,8.44385276 35.4157217,9.53460662 L35.4209985,9.68471077 L35.4209985,39.0810498 C35.4209985,40.1983683 34.5571689,41.1012438 33.4627953,41.1776425 L33.312193,41.1828803 L13.5298041,41.1828803 C12.4126086,41.1828803 11.5032391,40.3219078 11.4262754,39.231154 L11.4209985,39.0810498 L11.4209985,9.68471077 C11.4209985,8.5673923 12.2848282,7.66451682 13.3792018,7.58811804 L13.5298041,7.58288029 L33.312193,7.58288029 Z M33.312193,9.08288029 L13.5298041,9.08288029 L13.429972,9.09068023 C13.1706007,9.13175203 12.9701821,9.33077632 12.9288467,9.58639772 L12.9209985,9.68471077 L12.9209985,39.0810498 L12.928888,39.1787656 C12.9704314,39.4331483 13.1717434,39.6336079 13.4303437,39.675014 L13.5298041,39.6828803 L33.312193,39.6828803 L33.4120251,39.6750803 C33.6713964,39.6340086 33.871815,39.4349843 33.9131504,39.1793629 L33.9209985,39.0810498 L33.9209985,9.68471077 L33.9131091,9.58699495 C33.8663727,9.30081442 33.6174292,9.08288029 33.312193,9.08288029 Z M26.4,25.8 C27.4636053,25.8 28.3656154,26.4918717 28.6805214,27.4501063 L30,27.45 C30.4142136,27.45 30.75,27.7857864 30.75,28.2 C30.75,28.5796958 30.4678461,28.893491 30.1017706,28.9431534 L30,28.95 L28.6802787,28.9506318 C28.3651522,29.9084836 27.4633322,30.6 26.4,30.6 C25.3366678,30.6 24.4348478,29.9084836 24.1197213,28.9506318 L18,28.95 C17.5857864,28.95 17.25,28.6142136 17.25,28.2 C17.25,27.8203042 17.5321539,27.506509 17.8982294,27.4568466 L18,27.45 L24.1194786,27.4501063 C24.4343846,26.4918717 25.3363947,25.8 26.4,25.8 Z M21.6,16.8 C22.6833559,16.8 23.5990593,17.5178056 23.8974542,18.5037608 L30,18.5045455 C30.4142136,18.5045455 30.75,18.8403319 30.75,19.2545455 C30.75,19.6342412 30.4678461,19.9480364 30.1017706,19.9976988 L30,20.0045455 L23.8618359,20.0045111 C23.5310964,20.9343078 22.6432886,21.6 21.6,21.6 C20.5567114,21.6 19.6689036,20.9343078 19.3381641,20.0045111 L18,20.0045455 C17.5857864,20.0045455 17.25,19.668759 17.25,19.2545455 C17.25,18.8748497 17.5321539,18.5610545 17.8982294,18.5113921 L18,18.5045455 L19.3025458,18.5037608 C19.6009407,17.5178056 20.5166441,16.8 21.6,16.8 Z" id="Icon" fill="#DCDEE0"></path>
    </g>
</svg>