<?xml version="1.0" encoding="UTF-8"?>
<svg width="48px" height="48px" viewBox="0 0 48 48" version="1.1" xmlns="http://www.w3.org/2000/svg" xmlns:xlink="http://www.w3.org/1999/xlink">
    <title>Common / Rooms</title>
    <g id="Common-/-Rooms" stroke="none" stroke-width="1" fill="none" fill-rule="evenodd">
        <path d="M10.5,41 C9.3954305,41 8.5,40.1045695 8.5,39 L8.5,19.9809414 C8.5,19.362189 8.78639144,18.7782776 9.27565361,18.399494 L22.7756536,7.94788107 C23.4964942,7.38981096 24.5035058,7.38981096 25.2243464,7.94788107 L38.7243464,18.399494 C39.2136086,18.7782776 39.5,19.362189 39.5,19.9809414 L39.5,39 C39.5,40.0543618 38.6841222,40.9181651 37.6492623,40.9945143 L37.5,41 L10.5,41 Z M23.7751093,9.0827153 L23.6939134,9.13396663 L10.1939134,19.5855795 C10.096061,19.6613363 10.0306679,19.7699134 10.0084247,19.8895143 L10,19.9809414 L10,39 C10,39.2454599 10.1768752,39.4496084 10.4101244,39.4919443 L10.5,39.5 L24.5,39.4993285 L24.5,26 L38,25.9993285 L38,19.9809414 C38,19.8571909 37.9541774,19.739015 37.8732228,19.6482103 L37.8060866,19.5855795 L24.3060866,9.13396663 C24.1516208,9.01438018 23.9445929,8.9972964 23.7751093,9.0827153 Z M38,27.5 L26,27.5 L26,39.5 L37.5,39.5 C37.7454599,39.5 37.9496084,39.3231248 37.9919443,39.0898756 L38,39 L38,27.5 Z" id="Icon" fill="#DCDEE0" fill-rule="nonzero"></path>
    </g>
</svg>