<?xml version="1.0" encoding="UTF-8"?>
<svg width="48px" height="48px" viewBox="0 0 48 48" version="1.1" xmlns="http://www.w3.org/2000/svg" xmlns:xlink="http://www.w3.org/1999/xlink">
    <title>Common / Scene Capture</title>
    <g id="Common-/-Scene-Capture" stroke="none" stroke-width="1" fill="none" fill-rule="evenodd">
        <path d="M24,10 C31.7319865,10 38,16.2680135 38,24 C38,31.7319865 31.7319865,38 24,38 C16.2680135,38 10,31.7319865 10,24 C10,16.2680135 16.2680135,10 24,10 Z M26.704,29.999 L13.0311047,29.9993337 C15.1544883,33.8733923 19.2705056,36.5 24,36.5 C24.1825056,36.5 24.3640976,36.4960887 24.5446969,36.4883454 L24.5550605,36.4462518 L26.704,29.999 Z M30.505,23.338 L26.1824498,36.3101297 C30.9436919,35.4717711 34.7760285,31.9386335 36.0482698,27.341907 L30.505,23.338 Z M11.5,24 C11.5,25.586256 11.7954693,27.1035014 12.3343736,28.499702 L19.38,28.499 L17.493,22.471 L17.4554238,22.4081185 C17.4050365,22.3087394 17.3787346,22.201878 17.3752152,22.0951642 L15.1936558,15.1287929 C12.912515,17.3933586 11.5,20.5317241 11.5,24 Z M24.131,18.734 L19.027,22.349 L20.952,28.499 L27.204,28.499 L29.231,22.417 L24.131,18.734 Z M31.1629352,13.7545506 L25.424,17.818 L36.3811666,25.7306318 C36.4595089,25.1649715 36.5,24.5872144 36.5,24 C36.5,19.7610259 34.3899765,16.0148743 31.1629352,13.7545506 Z M24,11.5 C21.1540759,11.5 18.5302861,12.4510698 16.429127,14.0527129 L18.556,20.845 L29.7649155,12.9058493 C28.039982,12.0076813 26.0792787,11.5 24,11.5 Z" id="Icon" fill="#DCDEE0" fill-rule="nonzero"></path>
    </g>
</svg>