<?xml version="1.0" encoding="UTF-8"?>
<svg width="48px" height="48px" viewBox="0 0 48 48" version="1.1" xmlns="http://www.w3.org/2000/svg" xmlns:xlink="http://www.w3.org/1999/xlink">
    <title>Common / Scene Preview</title>
    <g id="Common-/-Scene-Preview" stroke="none" stroke-width="1" fill="none" fill-rule="evenodd">
        <path d="M24,12.75 C28.0846277,12.75 32.0699886,14.772664 35.813809,18.1224501 C36.9246556,19.116381 37.9465034,20.1697521 38.8670288,21.2318661 L39.4262291,21.8929638 L39.4262291,21.8929638 L39.531067,22.0206219 L39.9241074,22.5111592 L40.2743099,22.9666452 L40.3677956,23.0917079 L40.6169441,23.4362806 C40.7733379,23.6625224 40.7917715,23.9530951 40.6727281,24.1943948 L40.613294,24.294461 L40.2703512,24.7560797 L39.9200092,25.2035612 L39.7287116,25.4404455 L39.3144802,25.9381284 C38.2800796,27.1570277 37.1049731,28.375498 35.8087589,29.5144504 C32.0654601,32.8035975 28.0812765,34.7893366 24,34.7893366 C20.0169202,34.7893366 16.1209507,32.8950878 12.4446701,29.7347201 C11.1475911,28.6196674 9.96114641,27.4146 8.90320527,26.192132 L8.70660284,25.9630961 L8.34390992,25.5300372 L8.02260906,25.1331637 L7.74355166,24.7758779 L7.50758909,24.4615823 L7.38910471,24.2978487 C7.20587381,24.0405828 7.20345526,23.6960938 7.38305591,23.4362806 L7.42637325,23.3744564 L7.72569006,22.9666452 L8.07589261,22.5111592 L8.46893303,22.0206219 L8.68120906,21.7634169 C9.71535284,20.522527 10.8902033,19.2820362 12.186191,18.1224501 C15.9300114,14.772664 19.9153723,12.75 24,12.75 Z M24,14.25 C20.3526412,14.25 16.6811478,16.1133689 13.186392,19.2403044 C12.1256657,20.18939 11.1473074,21.1979955 10.2660048,22.2148525 L9.83350956,22.7237313 L9.43867361,23.2067609 L9.08526779,23.6568466 L8.931,23.859 L9.09198067,24.0670922 L9.44170649,24.5032735 L9.85025475,24.9924964 L10.0374417,25.2105477 C11.049793,26.3803359 12.1853157,27.5336821 13.4225096,28.5972536 C16.8520347,31.5454944 20.4386575,33.2893366 24,33.2893366 C27.65071,33.2893366 31.3233806,31.4588573 34.8186581,28.3876406 C35.8791902,27.4557764 36.8573327,26.4655105 37.7384158,25.4671716 L38.2732999,24.8461936 L38.2732999,24.8461936 L38.7473733,24.2681857 L39.067,23.858 L38.9147322,23.6568466 L38.5613264,23.2067609 L38.1664904,22.7237313 C37.1765241,21.5358506 36.051122,20.3475709 34.813608,19.2403044 C31.3188522,16.1133689 27.6473588,14.25 24,14.25 Z M24,17.043789 C27.7660107,17.043789 30.8189655,20.0967438 30.8189655,23.8627545 C30.8189655,27.6287652 27.7660107,30.68172 24,30.68172 C20.2339893,30.68172 17.1810345,27.6287652 17.1810345,23.8627545 C17.1810345,20.0967438 20.2339893,17.043789 24,17.043789 Z M24,18.543789 C21.0624165,18.543789 18.6810345,20.925171 18.6810345,23.8627545 C18.6810345,26.800338 21.0624165,29.18172 24,29.18172 C26.9375835,29.18172 29.3189655,26.800338 29.3189655,23.8627545 C29.3189655,20.925171 26.9375835,18.543789 24,18.543789 Z" id="Icon" fill="#DCDEE0" fill-rule="nonzero"></path>
    </g>
</svg>