<?xml version="1.0" encoding="UTF-8"?>
<svg width="48px" height="48px" viewBox="0 0 48 48" version="1.1" xmlns="http://www.w3.org/2000/svg" xmlns:xlink="http://www.w3.org/1999/xlink">
    <title>Common / Sync</title>
    <g id="Common-/-Sync" stroke="none" stroke-width="1" fill="none" fill-rule="evenodd">
        <path d="M11.4705221,21.0106984 L14.409965,25.3022245 C14.7226474,25.7587344 14.5268514,26.1366509 13.9713326,26.1463476 L11.8625176,26.1839553 C12.4029542,28.7551382 13.7616997,31.1144038 15.8126892,32.8973018 C18.0918827,34.8785744 20.9601707,35.9199535 23.9183672,35.9020801 C24.3325733,35.8995774 24.6703823,36.233329 24.672899,36.647535 C24.6753876,37.061741 24.3416361,37.3995501 23.9274301,37.4020527 C20.6078679,37.4221095 17.3857589,36.2522699 14.8286007,34.0293661 C12.4519651,31.9633884 10.9027222,29.205488 10.3382669,26.2098445 L8.04733554,26.2497513 C7.49240311,26.2594377 7.28411557,25.8867602 7.57951087,25.4214505 L10.3673911,21.0299536 C10.6639511,20.5628093 11.1590676,20.5559813 11.4705221,21.0106984 Z M23.7810697,9.90211107 C27.0973299,9.88439515 30.3156065,11.0541576 32.870224,13.2748527 C35.2775202,15.3674834 36.8368619,18.1704962 37.3825117,21.2142283 L39.457495,21.1782395 C40.0124275,21.1685531 40.220715,21.5412306 39.9253197,22.0065403 L37.1374395,26.3980372 C36.8408795,26.8651815 36.3457629,26.8720094 36.0343085,26.4172924 L33.0948656,22.1257663 C32.7821831,21.6692564 32.9779792,21.2913398 33.533498,21.2816432 L35.8609717,21.2409838 C35.3378556,18.6214466 33.9683958,16.2169984 31.8861354,14.4069171 C29.609205,12.4276117 26.7443314,11.3863023 23.7890828,11.4020897 C23.3748751,11.4043024 23.0372997,11.0703146 23.035076,10.6561069 C23.0328742,10.2418993 23.366862,9.90432383 23.7810697,9.90211107 Z" id="Icon" fill="#DCDEE0" fill-rule="nonzero"></path>
    </g>
</svg>